<svg xmlns="http://www.w3.org/2000/svg" space="preserve" width="37"
                 height="37" version="1.1"
                 style="shape-rendering:geometricPrecision; text-rendering:geometricPrecision; image-rendering:optimizeQuality; fill-rule:evenodd; clip-rule:evenodd; fill:white;"
                 viewBox="0 0 11255.72 11358.16">
                <g id="Слой_x0020_1"> <metadata id="CorelCorpID_0Corel-Layer"/>
                    <path className="white"
                          d="M951.95 7276.17l0 824.11 0 365.78 0 260.02c0,47.02 0.73,94.76 2.21,143.25 1.45,48.47 3.66,97.69 6.59,147.64 5.9,158.64 10.31,298.21 13.24,418.66 2.93,120.46 4.41,242.39 4.41,365.78l0 114.59 0 70.51c0,41.15 -1.48,63.16 -4.41,66.12 32.32,2.93 85.93,5.14 160.85,6.59 74.92,1.48 153.5,3.69 235.77,6.62 17.63,-79.34 27.91,-145.43 30.87,-198.31 2.93,-52.91 4.38,-91.1 4.38,-114.59l0 -83.75c0,-17.63 -0.73,-35.98 -2.18,-55.09 -1.48,-19.08 -3.69,-40.39 -6.62,-63.89l0 -956.36c41.12,2.96 77.85,19.83 110.18,50.7 32.32,30.84 64.64,75.65 96.96,134.42 41.12,64.61 82.27,132.19 123.39,202.72 41.12,70.51 85.2,146.88 132.22,229.15l127.8 374.61 96.96 471.54c38.19,0 75.65,-1.45 112.38,-4.38 36.71,-2.96 80.06,-7.35 130.01,-13.24 26.43,-2.93 58.02,-5.87 94.73,-8.8 36.74,-2.93 72.75,-7.35 108,-13.24l-101.38 -564.09 -163.06 -471.54c-14.69,-26.46 -29.39,-52.91 -44.08,-79.34 -14.69,-26.46 -29.36,-51.43 -44.05,-74.92 -82.27,-132.22 -149.84,-239.46 -202.72,-321.73 -52.91,-82.27 -94.03,-143.95 -123.42,-185.1l0 -44.05 61.71 -110.18c8.8,-20.59 24.25,-49.95 46.26,-88.16 22.04,-38.19 47.77,-80.06 77.13,-125.6 29.39,-45.53 60.98,-92.55 94.76,-141.02 33.8,-48.5 65.37,-94.76 94.76,-138.84l26.46 -39.67c26.43,-41.12 51.4,-80.79 74.92,-118.97 23.49,-38.19 41.12,-64.64 52.88,-79.34 -32.32,-49.95 -85.2,-92.55 -158.67,-127.8 -73.44,-35.25 -143.95,-52.88 -211.52,-52.88 -35.25,0 -59.5,3.66 -72.71,11.01 -13.24,7.35 -30.11,27.18 -50.7,59.5l-409.83 762.43 -61.71 0 0 -810.9c0,-35.25 -22.04,-57.3 -66.12,-66.12 -44.05,-8.8 -86.65,-13.21 -127.8,-13.21l-110.18 0c-32.32,0 -65.37,4.41 -99.14,13.21 -33.8,8.83 -53.64,30.87 -59.5,66.12zm1546.88 -83.75c2.93,0 20.56,-2.21 52.88,-6.59 32.32,-4.41 63.19,-9.55 92.55,-15.42l-4.38 0c38.19,-5.9 70.51,-11.04 96.93,-15.45 26.46,-4.38 49.95,-6.59 70.54,-6.59l66.09 0c23.49,0 47.02,2.21 70.51,6.59 23.52,4.41 42.6,19.83 57.3,46.29l220.35 837.35 48.47 26.43c2.96,-11.76 7.35,-27.18 13.24,-46.26 5.87,-19.11 11.73,-38.94 17.63,-59.5 5.87,-20.56 11.01,-38.94 15.42,-55.09 4.41,-16.18 6.62,-27.18 6.62,-33.05 5.87,-29.39 16.87,-86.68 33.05,-171.89 16.15,-85.2 34.53,-175.54 55.09,-271.03 20.56,-95.51 38.91,-185.1 55.09,-268.85 16.15,-83.72 27.18,-141.77 33.05,-174.06l612.59 0 -612.59 1921.49 0 1216.35 -449.53 -17.63 0 -1119.42 -550.88 -1793.68zm2216.76 427.49l-52.88 4.41 0 991.58c79.34,0 153.5,-16.87 222.56,-50.67 69.06,-33.77 129.28,-78.58 180.68,-134.42 51.43,-55.81 92.55,-118.97 123.42,-189.48 30.84,-70.54 46.26,-142.5 46.26,-215.97 0,-11.73 -0.73,-28.63 -2.21,-50.67 -1.45,-22.04 -2.93,-45.53 -4.41,-70.51 -1.45,-24.97 -2.93,-48.5 -4.38,-70.51 -1.48,-22.04 -2.21,-37.46 -2.21,-46.29l0 8.83c-44.08,-76.4 -107.24,-125.63 -189.51,-147.64 -82.27,-22.04 -161.61,-33.08 -237.98,-33.08l-35.25 0c-26.46,0 -41.15,1.48 -44.08,4.41zm-489.17 1524.87c0,-47.02 0.73,-121.21 2.21,-222.56 1.45,-101.38 3.66,-216.69 6.59,-345.98 2.93,-129.25 6.62,-265.16 11.04,-407.63 4.38,-142.5 8.07,-278.4 11.01,-407.66 2.93,-129.28 6.62,-244.6 11.01,-345.98 4.41,-101.35 8.1,-175.54 11.04,-222.56 41.12,-64.61 96.96,-103.55 167.47,-116.77 70.51,-13.24 141.02,-19.83 211.52,-19.83l74.92 0c132.22,0 257.81,17.63 376.82,52.88 118.97,35.25 223.28,89.62 312.9,163.06 89.62,73.44 160.12,164.54 211.55,273.23 51.4,108.72 77.1,237.98 77.1,387.82 0,108.72 -16.15,208.62 -48.47,299.69 -32.32,91.07 -75.65,176.3 -130.01,255.61 -54.36,79.34 -116.8,153.53 -187.31,222.56 -70.51,69.06 -142.5,135.88 -215.94,200.52l0 52.88 61.71 114.59c11.73,29.39 38.19,81.54 79.31,156.47 41.15,74.92 87.41,154.23 138.84,237.98 51.4,83.72 100.62,161.61 147.64,233.56 47.02,71.99 80.79,118.28 101.35,138.84 -32.32,67.57 -85.2,117.52 -158.64,149.84 -73.47,32.32 -143.98,48.47 -211.55,48.47 -38.19,0 -62.44,-1.48 -72.71,-4.41 -10.28,-2.93 -22.77,-16.15 -37.46,-39.67l-423.08 -841.74 -66.09 0 0 868.19c0,35.25 -22.04,57.3 -66.12,66.09 -44.05,8.83 -86.65,13.24 -127.8,13.24l-66.09 0 -61.71 4.38c-29.39,0 -58.75,-5.87 -88.13,-17.63 -29.39,-11.73 -47.02,-33.77 -52.88,-66.09l0 -881.41zm1652.64 -475.99c0,-176.27 16.18,-358.43 48.5,-546.47 32.32,-188.03 88.86,-359.19 169.68,-513.42 80.79,-154.26 190.24,-280.58 328.32,-379.02 138.08,-98.41 312.9,-147.64 524.42,-147.64 23.52,0 50.7,0.76 81.54,2.21 30.84,1.48 55.09,3.69 72.71,6.62l22.04 0 70.51 70.51 0 511.21c-173.34,0 -319.52,22.77 -438.5,68.33 -119,45.53 -215.21,112.38 -288.68,200.52 -73.44,88.13 -127.05,195.38 -160.85,321.7 -33.77,126.35 -50.67,270.3 -50.67,431.91 0,61.71 3.66,144.7 11.01,249.01 7.35,104.28 24.25,207.11 50.67,308.49 26.46,101.35 66.12,188.76 119,262.23 52.88,73.44 123.39,110.18 211.55,110.18l44.05 0c26.46,0 53.64,-2.93 81.54,-8.83 27.91,-5.87 41.88,-20.56 41.88,-44.05l0 -586.16 -26.46 0c-38.19,0 -67.57,-1.45 -88.13,-4.38 -20.56,-2.96 -36.01,-10.31 -46.29,-22.04 -10.28,-11.76 -16.15,-30.87 -17.63,-57.3 -1.45,-26.46 -2.21,-64.64 -2.21,-114.59l0 -189.51 4.41 -17.63c0,-14.69 8.83,-30.84 26.46,-48.47 17.63,-17.63 33.77,-26.46 48.47,-26.46l537.67 0 0 304.1c-2.93,20.56 -5.14,41.12 -6.62,61.68 -1.45,20.59 -2.21,42.6 -2.21,66.12l0 264.43c0,111.63 -4.38,218.87 -13.21,321.7 -8.8,102.83 -32.32,195.38 -70.51,277.65 -38.19,82.27 -94.03,147.64 -167.47,196.13 -73.44,48.47 -176.27,72.71 -308.49,72.71 -188.03,0 -335.67,-46.29 -442.91,-138.84 -107.24,-92.55 -188.03,-208.59 -242.39,-348.15 -54.36,-139.56 -88.13,-291.62 -101.38,-456.12 -13.21,-164.54 -19.83,-317.32 -19.83,-458.36zm1524.87 -1476.37c2.93,0 20.56,-2.21 52.88,-6.59 32.32,-4.41 63.16,-9.55 92.55,-15.42l-4.41 0c38.19,-5.9 70.51,-11.04 96.96,-15.45 26.46,-4.38 49.95,-6.59 70.51,-6.59l66.12 0c23.49,0 46.98,2.21 70.51,6.59 23.49,4.41 42.6,19.83 57.3,46.29l220.35 837.35 48.47 26.43c2.93,-11.76 7.35,-27.18 13.21,-46.26 5.9,-19.11 11.76,-38.94 17.63,-59.5 5.9,-20.56 11.04,-38.94 15.45,-55.09 4.38,-16.18 6.59,-27.18 6.59,-33.05 5.9,-29.39 16.9,-86.68 33.05,-171.89 16.18,-85.2 34.53,-175.54 55.09,-271.03 20.59,-95.51 38.94,-185.1 55.12,-268.85 16.15,-83.72 27.15,-141.77 33.05,-174.06l612.59 0 -612.59 1921.49 0 1216.35 -449.53 -17.63 0 -1119.42 -550.88 -1793.68zm2798.48 -79.31c-2.93,2.93 -19.08,4.38 -48.47,4.38l-48.47 0 -92.55 0c-32.32,0 -63.92,-0.73 -94.76,-2.21 -30.84,-1.45 -62.44,-3.66 -94.76,-6.59l-101.38 0c-52.88,-2.93 -106.49,-5.87 -160.85,-8.83 -54.36,-2.93 -110.9,-4.38 -169.68,-4.38 -17.63,0 -41.85,0.73 -72.71,2.18 -30.84,1.48 -55.09,3.69 -72.71,6.62l-22.04 0 -70.51 70.51 0 449.53 696.34 0 -572.92 1754.02 0 687.51 1026.84 0 0 -436.32 -515.63 0 449.53 -2027.25c2.93,-2.93 4.38,-30.84 4.38,-83.72 0,-79.34 -8.8,-210.07 -26.43,-392.24l-13.24 -13.21z"/>
                    <path className="white"
                          d="M4928.98 87.11c-140.47,8.86 -243.42,156.86 -320.91,258.08 -90.31,117.95 -203.9,160.49 -350.42,250.47 -155.83,95.72 -247.96,143.46 -345.49,254.94 -73.59,84.11 -201.64,230 -284.12,296.57 -68.75,-117.49 -76.49,-171.37 -222.47,-202.88 -186.88,102.01 -357.62,285.36 -540.27,448.9 -104.64,93.7 -216.72,177.36 -329.05,244.51 -178.36,106.7 -439.83,226.37 -600.34,291.98 -170.28,69.6 -545.41,245.84 -679.32,270.81l315.62 -379.54c-363.54,-9.64 -297.15,232.57 -812.2,473.84 19.32,-71.23 30.3,-44.17 57.57,-134.91 -282.79,95.42 -520.8,396.11 -817.58,479.1 55.39,-81.3 551.51,-367.9 682.76,-456.7 335.15,-226.67 134.55,-100.29 400.4,-160.58 102.62,-23.28 191.57,-169.32 296.51,-238.61 50.55,-5.26 94.48,-4.93 145.55,-13.3 57.54,-9.46 124.14,-30.02 157.43,-40.3 33.29,-10.28 33.29,-10.28 21.8,7.83 -11.52,18.08 -34.56,54.24 -61.26,97.42 -26.73,43.18 -57.14,93.3 -72.78,117.98 -15.63,24.67 -16.45,23.86 -4.11,18.9 12.34,-4.93 37.82,-13.97 110.6,-41.91 72.75,-27.97 192.78,-74.83 353.93,-151.69 161.15,-76.89 363.39,-183.77 510.12,-265.61 385.16,-214.79 468.07,-320.28 823.54,-631.12 115.62,-101.04 291.28,-9.55 397.01,15.33 175.88,-121.85 209.77,-298.75 464.2,-421.84 106,-51.28 230.72,-67.36 313.02,-132.79 81.82,-65 107.55,-144.64 216.87,-227.73 281.18,-213.76 345.77,-93.76 553.24,83.84 221.47,189.6 429.61,378.27 699.64,498.33 237.16,-97.36 434.96,-358.92 630.16,-456.91 205.33,-103.07 335.67,335.91 650.9,408.87 174.64,40.42 546.74,300.05 675.72,408.47 161.94,136.12 231.63,76.86 374.94,181.02 372.4,270.72 235.95,314.93 698.43,133.52 195.8,-76.83 210.34,-64.07 362.37,50.89 91.82,69.42 507.04,408.53 594.48,431.39 247.56,64.7 149.63,-27.94 377.48,132.28 107.36,75.53 178.2,143.07 295.67,216.09 210.13,130.64 495.91,271.99 587.1,433.87l-1030.98 -566.24c30.33,201.88 290.8,247.9 357.92,400.55 -144.13,-54.24 -249.68,-137.81 -391.78,-193.9 -563.52,-222.32 -288.53,-122.03 -570.62,-362.18 -186.46,-158.76 -278.71,-311.9 -391.72,-538.85 -109.06,16.9 -355.05,169.89 -432.75,236.71 81.91,163.93 593.9,486.27 767.6,627.68 175.69,143.04 648.66,548.94 717.35,684.31 -118.16,-35.62 -289.77,-184.28 -422.05,-268.73 -144.4,-92.19 -268.4,-174.27 -425.59,-284.9 -216,-151.99 -642.1,-532.25 -823.54,-583.99 65.55,144.43 244.72,293.73 287.44,488.57 -231.09,-102.98 -295.91,-339.84 -464.29,-506.4 -163.03,-161.3 -399.71,-260.59 -550,-417.3 105.55,354.99 351.3,302.47 325.24,728.42 -132.88,-148.39 35.8,-173.03 -481.58,-471.15 59.14,-211.49 31.66,-139.17 -120.43,-303.56 -48.83,-52.79 -87.02,-126.26 -159.07,-169.01 -16.48,72.9 -14.39,127.59 -59.08,181.83 -69.9,-103.34 -60.44,-252.76 -102.07,-385.4 -48.07,-153.32 -150.39,-141.86 -232.51,-254.82 -37.46,-0.85 -58.87,17.45 -84.66,42.81l-113.44 -200.34c-34.74,12.73 -57.45,33.11 -80.88,60.35l-69.18 -288.11c-130.61,12.15 -245.39,134.45 -327.56,197.83 -88.13,67.97 -221.2,161.67 -264.74,254.31 33.26,58.66 249.95,199.94 309.67,230.42 247.65,126.41 345.19,382.11 491.04,599.89 113.96,170.1 75.19,220.26 297.33,252.13 193.68,27.79 209.5,110.27 303.13,237.01 67.82,91.79 196.41,155.92 314.14,242.09 187.06,136.9 432.99,354.5 503.02,630.22 -128.83,-54.88 -217.6,-179.96 -304.43,-272.17 -166.08,-176.42 -466.55,-304.07 -620.9,-491.5 -40.06,-48.68 -90.16,-132.31 -131.1,-157.58 -86.65,-53.46 -141.44,-5.29 -227.31,-61.32 -73.8,-48.16 -161.97,-239.28 -222.59,-334.31 -101.23,-158.79 -169.89,-181.68 -269.73,-310.09 -235.17,-302.47 -169.68,-192.29 -462.29,-382.32 -167.2,-108.6 -411.04,-280.82 -595.29,-360.01 -180.65,-77.61 -147.36,-17.63 -267.61,16.96 -45.35,-107.18 -40.45,-187.37 -111.23,-279.43 -98.41,38.49 -94.79,99.23 -186.37,159.34l-3.27 -376.61z"/>
                    <path className="white"
                          d="M622.38 3932.95c50.37,14.36 92.79,30.66 145.52,40.51 52.73,9.86 115.71,13.27 174.15,14.18 58.44,0.91 112.32,-0.7 180.35,-5.08 68.03,-4.38 150.24,-11.52 237.8,-12.76 87.59,-1.24 180.5,3.45 260.14,4.41 79.64,0.94 145.97,-1.87 209.07,-3.36 63.13,-1.48 123.03,-1.63 178.84,-5.02 55.81,-3.39 107.52,-10.01 151.81,-15.12 44.26,-5.14 81.09,-8.77 115.62,-6.05 34.53,2.69 66.76,11.76 104.92,18.96 38.19,7.23 82.27,12.55 148.94,21.41 66.67,8.86 155.92,21.19 217.24,34.8 61.32,13.61 94.73,28.51 102.19,27.45 7.44,-1.09 -11.04,-18.11 -40.51,-35.19 -29.48,-17.11 -69.96,-34.29 -126.2,-45.14 -56.24,-10.82 -128.29,-15.33 -182.5,-25.4 -54.24,-10.07 -90.64,-25.7 -138.54,-40.54 -47.89,-14.88 -107.21,-28.97 -163.3,-33.95 -56.06,-4.99 -108.85,-0.85 -158.04,7.35 -49.16,8.22 -94.7,20.5 -154.65,30.96 -59.96,10.43 -134.27,19.05 -203.21,19.08 -68.94,0 -132.46,-8.59 -195.77,-17.78 -63.34,-9.19 -126.47,-18.96 -181.29,-17.26 -54.85,1.66 -101.35,14.82 -157.22,16.54 -55.87,1.72 -121.06,-8.01 -167.86,-3.66 -46.77,4.38 -75.16,22.83 -112.81,26.49 -37.64,3.69 -84.54,-7.44 -132.67,-14.75 -48.16,-7.32 -97.57,-10.85 -144.28,-13.61 -46.71,-2.75 -90.7,-4.75 -83.54,0.48 7.14,5.23 65.43,17.66 115.8,32.05z"/>
                    <path className="white"
                          d="M3018.62 11312.05c0.7,4.9 2.96,10.49 6.8,16.78 3.84,6.29 6.11,9.43 6.8,9.43l110.02 0 -132.04 -577.27 -1.03 -9.43c-0.7,-0.7 -1.06,-3.84 -1.06,-9.43l0 -15.72c0,-6.29 1.24,-12.03 3.66,-17.26 2.45,-5.26 7.53,-7.86 15.21,-7.86l19.89 0 0 -98.51 -177.06 0 -207.44 722.92 107.91 0 13.64 -13.64c0.7,-4.17 2.45,-11.34 5.23,-21.47 2.78,-10.13 5.77,-20.95 8.92,-32.47 3.11,-11.52 6.44,-23.04 9.95,-34.59 3.48,-11.52 6.29,-21.1 8.38,-28.81 1.39,-2.78 2.27,-5.23 2.63,-7.32 0.33,-2.09 0.85,-3.84 1.57,-5.23l9.4 -22.01 152.96 12.58 9.43 9.43c0.7,5.56 2.27,14.66 4.72,27.24 2.45,12.55 4.9,25.67 7.35,39.28 2.45,13.64 5.05,26.55 7.86,38.76 2.78,12.21 4.87,20.44 6.29,24.61zm-114.2 -509.16l6.29 -8.38 10.46 19.89c0,0.7 0.7,4.35 2.09,11.01 1.42,6.62 3.33,15.18 5.77,25.67 2.45,10.46 4.9,22.16 7.35,35.1 2.42,12.91 4.69,26 6.8,39.28l2.09 11.52c2.09,12.58 4.2,24.79 6.29,36.67 2.09,11.88 3.84,21.65 5.23,29.33l1.06 19.92c0,2.09 -0.36,6.44 -1.06,13.09 -0.7,6.62 -3.48,9.95 -8.38,9.95l-93.24 0 49.25 -243.06zm601.37 199.07c0,-44.02 -4.02,-88.01 -12.06,-132.01 -8.04,-44.02 -21.65,-83.99 -40.85,-119.97 -19.23,-35.98 -44.72,-65.67 -76.49,-89.04 -31.78,-23.4 -71.41,-36.86 -118.91,-40.33l-75.44 0 13.64 629.64c0,1.39 0.18,2.78 0.51,4.2 0.36,1.39 0.51,2.78 0.51,4.17l0 5.23c0.73,8.41 1.42,19.05 2.12,31.96 0.7,12.94 1.39,28.12 2.09,45.59l114.2 -6.29c43.99,0 78.76,-11.01 104.25,-33.02 25.49,-21.98 44.69,-49.59 57.63,-82.75 12.91,-33.17 20.95,-69.33 24.1,-108.45 3.14,-39.09 4.72,-75.44 4.72,-108.94zm-91.16 -18.87l0 12.58c0,7.68 -0.36,11.85 -1.06,12.58 0,14.66 -0.7,34.2 -2.09,58.66 -1.39,24.46 -5.23,49.59 -11.52,75.44 -6.29,24.43 -15.03,42.78 -26.21,55 -11.16,12.21 -28.97,22.52 -53.43,30.9l1.06 0c-16.05,2.12 -27.6,3.14 -34.59,3.14 -5.56,0 -9.4,-1.03 -11.52,-3.14 -2.09,-0.7 -3.14,-91.49 -3.14,-272.39l0 -188.57c11.19,0 24.97,4.87 41.39,14.66 16.42,9.77 32.14,23.92 47.14,42.42 15.03,18.5 27.79,41.03 38.25,67.57 10.49,26.55 15.72,56.93 15.72,91.16zm104.76 -291.25c2.78,-0.7 7.5,-1.94 14.15,-3.66 6.62,-1.75 13.79,-3.51 21.47,-5.26 7.68,-1.72 15.03,-3.3 22.01,-4.72 6.98,-1.39 11.88,-2.09 14.66,-2.09l17.81 0c5.59,0 11.01,0.7 16.24,2.09 5.23,1.42 9.25,6.29 12.06,14.66l54.48 280.79 9.4 10.49c0.7,-4.2 1.75,-9.61 3.14,-16.27 1.42,-6.62 2.81,-13.42 4.2,-20.41 1.39,-6.98 2.63,-13.27 3.66,-18.87 1.06,-5.59 1.57,-9.07 1.57,-10.46 0.7,-7.01 1.94,-18.17 3.66,-33.53 1.75,-15.39 4.02,-32.84 6.83,-52.4 2.78,-19.56 5.74,-39.97 8.89,-61.29 3.14,-21.32 6.29,-41.72 9.43,-61.29 3.14,-19.56 6.11,-37.01 8.92,-52.4 2.78,-15.36 5.23,-26.88 7.32,-34.56l13.64 -30.39 133.03 0 -156.1 719.74c-6.29,30.75 -24.1,46.11 -53.43,46.11 -6.29,0 -11.19,-0.18 -14.66,-0.51 -3.51,-0.36 -5.93,-1.39 -7.35,-3.14 -1.39,-1.75 -2.42,-4.2 -3.14,-7.35 -0.7,-3.14 -1.72,-7.86 -3.11,-14.15 -0.73,-2.78 -1.94,-5.93 -3.69,-9.4 -1.75,-3.51 -3.3,-7.35 -4.72,-11.55l-140.38 -620.21zm429.55 -52.4c4.9,-0.7 9.77,-1.21 14.66,-1.57 4.9,-0.33 9.1,-0.88 12.58,-1.57 17.48,-2.09 33.53,-3.84 48.19,-5.23 14.66,-1.39 28.63,-2.63 41.91,-3.66 13.27,-1.06 26.73,-1.75 40.33,-2.12 13.64,-0.33 28.81,-0.51 45.56,-0.51 3.51,0 8.92,0.18 16.27,0.51 7.32,0.36 13.09,0.88 17.26,1.57l5.26 0 15.69 16.78 0 105.82 -165.54 0 0 163.42 124.69 0 0 118.4 -110.02 0 0 198.01 124.69 0 0 104.76 -247.26 0 0 -341.53c0,-61.47 1.42,-121.54 4.2,-180.2 2.78,-58.69 5.59,-115.26 8.38,-169.74l3.14 -3.14zm333.16 56.57c1.39,0 3.14,-0.15 5.23,-0.51 2.12,-0.33 4.9,-0.51 8.41,-0.51 0.7,-0.7 3.84,-1.06 9.43,-1.06l7.32 0 6.29 0c6.29,0 13.27,0.88 20.95,2.63 7.68,1.75 12.91,7.17 15.72,16.24 2.09,6.29 5.59,16.05 10.46,29.33 4.9,13.27 10.49,28.12 16.78,44.54 6.29,16.42 12.91,33.86 19.89,52.37 6.98,18.53 13.79,35.98 20.44,52.4 6.62,16.42 12.58,31.26 17.81,44.54 5.23,13.27 9.25,23.04 12.03,29.33l-1.03 -1.06c1.39,1.39 3.66,4.38 6.8,8.92 3.14,4.54 6.11,8.56 8.92,12.03l0 -374.01 127.8 0c0,57.26 -0.88,116.98 -2.63,179.14 -1.72,62.16 -3.99,124.33 -6.8,186.49 -2.78,62.16 -6.11,123.63 -9.95,184.4 -3.84,60.74 -7.86,118.37 -12.06,172.85l-87.98 0 -105.82 -306.97 0 306.97 -107.91 0c0,-108.27 1.57,-214.24 4.72,-317.98 3.14,-103.71 7.17,-209.35 12.03,-316.92l3.14 -3.14zm656.91 -71.23c-16.08,1.39 -30.93,2.27 -44.54,2.63 -13.61,0.33 -27.42,0.51 -41.39,0.51 -11.85,0 -23.4,-0.18 -34.56,-0.51 -11.19,-0.36 -22.71,-0.88 -34.59,-1.57 -1.39,-0.7 -4.54,-1.06 -9.43,-1.06l-9.4 0 -57.63 0 -12.58 0c-9.8,0 -15.03,0.36 -15.72,1.06l-18.87 1.03 -17.81 16.78 0 106.85 101.62 0 0 474.6c0,63.58 1.75,98.14 5.26,103.74 11.85,2.78 21.47,4.35 28.81,4.72 7.32,0.33 11.7,0.51 13.09,0.51 18.87,-0.7 32.65,-2.09 41.39,-4.17 8.71,-2.12 13.79,-4.9 15.18,-8.41 2.09,-6.29 3.14,-17.81 3.14,-34.56l0 -539.57c65.64,0 98.47,-4.54 98.47,-13.61 0,-4.2 -0.51,-14.66 -1.57,-31.44 -1.03,-16.75 -2.96,-40.85 -5.74,-72.29l-3.14 -5.23zm59.71 11.52c0,50.31 -0.36,94.12 -1.06,131.49 -0.7,37.37 -1.39,70.72 -2.09,100.05l0 91.16c0,43.99 3.66,87.47 11.01,130.43 7.32,42.96 20.77,83.3 40.33,121 16.75,35.62 33.17,62.86 49.22,81.72 16.08,18.87 36.34,33.17 60.77,42.96 39.82,0 75.8,-6.98 107.91,-20.95 13.97,-7.68 26.55,-17.48 37.73,-29.33 11.16,-11.88 20.26,-25.85 27.24,-41.94 15.36,-30.72 28.27,-87.65 38.76,-170.77l17.81 -428.49 -123.63 -7.35c-6.98,311.51 -15.36,481.58 -25.16,510.24 -9.07,22.34 -16.42,36.31 -21.98,41.91 -2.81,2.78 -11.88,5.93 -27.24,9.4 -19.56,-4.17 -35.98,-20.23 -49.25,-48.19 -13.97,-29.33 -22.89,-59.87 -26.73,-91.67 -3.84,-31.78 -5.74,-64.43 -5.74,-97.93 0,-19.56 0.33,-41.21 1.06,-64.97 0.7,-23.73 1.39,-48.53 2.09,-74.38 1.39,-29.33 2.27,-59.38 2.6,-90.1 0.36,-30.72 0.54,-59.71 0.54,-86.96l-114.2 -7.35zm546.89 116.31l-12.58 1.03 0 235.74c18.87,0 36.49,-4.02 52.91,-12.06 16.42,-8.01 30.72,-18.69 42.96,-31.96 12.21,-13.24 21.98,-28.27 29.33,-45.05 7.32,-16.75 11.01,-33.86 11.01,-51.31 0,-2.81 -0.18,-6.83 -0.54,-12.06 -0.33,-5.23 -0.7,-10.82 -1.03,-16.75 -0.36,-5.96 -0.7,-11.55 -1.06,-16.78 -0.36,-5.23 -0.51,-8.89 -0.51,-11.01l0 2.12c-10.49,-18.17 -25.49,-29.87 -45.05,-35.1 -19.56,-5.23 -38.43,-7.86 -56.57,-7.86l-8.41 0c-6.29,0 -9.77,0.36 -10.46,1.06zm-116.31 362.49c0,-11.19 0.18,-28.81 0.54,-52.91 0.33,-24.1 0.88,-51.52 1.57,-82.24 0.7,-30.72 1.57,-63.04 2.6,-96.9 1.06,-33.89 1.94,-66.18 2.63,-96.93 0.7,-30.72 1.57,-58.14 2.63,-82.24 1.03,-24.1 1.9,-41.72 2.6,-52.91 9.8,-15.36 23.07,-24.61 39.82,-27.76 16.75,-3.14 33.53,-4.72 50.28,-4.72l17.81 0c31.44,0 61.29,4.2 89.59,12.58 28.3,8.38 53.09,21.32 74.38,38.76 21.32,17.48 38.07,39.12 50.31,64.97 12.21,25.82 18.32,56.57 18.32,92.19 0,25.85 -3.84,49.59 -11.52,71.23 -7.68,21.65 -17.99,41.91 -30.9,60.77 -12.94,18.87 -27.79,36.49 -44.54,52.91 -16.75,16.42 -33.86,32.29 -51.34,47.65l0 12.58 14.66 27.24c2.81,6.98 9.07,19.38 18.87,37.19 9.77,17.81 20.77,36.67 32.99,56.57 12.25,19.92 23.95,38.43 35.1,55.54 11.19,17.11 19.2,28.12 24.1,33.02 -7.68,16.05 -20.26,27.94 -37.7,35.62 -17.48,7.68 -34.23,11.52 -50.31,11.52 -9.07,0 -14.82,-0.36 -17.26,-1.06 -2.45,-0.7 -5.41,-3.84 -8.92,-9.43l-100.56 -200.09 -15.72 0 0 206.38c0,8.38 -5.23,13.64 -15.72,15.72 -10.46,2.09 -20.59,3.14 -30.39,3.14l-15.72 0 -14.66 1.06c-6.98,0 -13.97,-1.42 -20.95,-4.2 -6.98,-2.78 -11.16,-8.04 -12.58,-15.72l0 -209.53zm420.14 -475.66c4.87,-0.7 9.77,-1.21 14.66,-1.57 4.9,-0.33 9.07,-0.88 12.58,-1.57 17.45,-2.09 33.5,-3.84 48.19,-5.23 14.66,-1.39 28.63,-2.63 41.91,-3.66 13.27,-1.06 26.7,-1.75 40.33,-2.12 13.61,-0.33 28.81,-0.51 45.56,-0.51 3.51,0 8.92,0.18 16.24,0.51 7.35,0.36 13.09,0.88 17.29,1.57l5.23 0 15.72 16.78 0 105.82 -165.54 0 0 163.42 124.69 0 0 118.4 -110.02 0 0 198.01 124.69 0 0 104.76 -247.26 0 0 -341.53c0,-61.47 1.39,-121.54 4.2,-180.2 2.78,-58.69 5.56,-115.26 8.38,-169.74l3.14 -3.14zm829.77 -14.66c-16.08,1.39 -30.93,2.27 -44.54,2.63 -13.64,0.33 -27.42,0.51 -41.39,0.51 -11.88,0 -23.4,-0.18 -34.56,-0.51 -11.19,-0.36 -22.71,-0.88 -34.59,-1.57 -1.39,-0.7 -4.54,-1.06 -9.43,-1.06l-9.43 0 -57.6 0 -12.58 0c-9.8,0 -15.03,0.36 -15.72,1.06l-18.87 1.03 -17.81 16.78 0 106.85 101.62 0 0 474.6c0,63.58 1.75,98.14 5.26,103.74 11.85,2.78 21.47,4.35 28.81,4.72 7.32,0.33 11.7,0.51 13.09,0.51 18.84,-0.7 32.65,-2.09 41.36,-4.17 8.74,-2.12 13.82,-4.9 15.21,-8.41 2.09,-6.29 3.14,-17.81 3.14,-34.56l0 -539.57c65.64,0 98.47,-4.54 98.47,-13.61 0,-4.2 -0.51,-14.66 -1.57,-31.44 -1.06,-16.75 -2.96,-40.85 -5.74,-72.29l-3.14 -5.23zm170.77 127.83l-12.58 1.03 0 235.74c18.87,0 36.49,-4.02 52.91,-12.06 16.42,-8.01 30.72,-18.69 42.96,-31.96 12.21,-13.24 21.98,-28.27 29.33,-45.05 7.32,-16.75 11.01,-33.86 11.01,-51.31 0,-2.81 -0.18,-6.83 -0.54,-12.06 -0.33,-5.23 -0.7,-10.82 -1.03,-16.75 -0.36,-5.96 -0.7,-11.55 -1.06,-16.78 -0.36,-5.23 -0.51,-8.89 -0.51,-11.01l0 2.12c-10.49,-18.17 -25.49,-29.87 -45.05,-35.1 -19.56,-5.23 -38.43,-7.86 -56.6,-7.86l-8.38 0c-6.29,0 -9.77,0.36 -10.46,1.06zm-116.31 362.49c0,-11.19 0.18,-28.81 0.54,-52.91 0.33,-24.1 0.88,-51.52 1.57,-82.24 0.7,-30.72 1.57,-63.04 2.6,-96.9 1.06,-33.89 1.94,-66.18 2.63,-96.93 0.7,-30.72 1.57,-58.14 2.63,-82.24 1.03,-24.1 1.9,-41.72 2.6,-52.91 9.8,-15.36 23.07,-24.61 39.82,-27.76 16.75,-3.14 33.53,-4.72 50.28,-4.72l17.81 0c31.44,0 61.29,4.2 89.59,12.58 28.3,8.38 53.09,21.32 74.38,38.76 21.32,17.48 38.07,39.12 50.31,64.97 12.21,25.82 18.32,56.57 18.32,92.19 0,25.85 -3.84,49.59 -11.52,71.23 -7.68,21.65 -17.99,41.91 -30.9,60.77 -12.94,18.87 -27.79,36.49 -44.54,52.91 -16.78,16.42 -33.86,32.29 -51.34,47.65l0 12.58 14.66 27.24c2.81,6.98 9.07,19.38 18.87,37.19 9.77,17.81 20.77,36.67 32.99,56.57 12.25,19.92 23.95,38.43 35.1,55.54 11.19,17.11 19.2,28.12 24.1,33.02 -7.68,16.05 -20.26,27.94 -37.7,35.62 -17.48,7.68 -34.23,11.52 -50.31,11.52 -9.07,0 -14.82,-0.36 -17.26,-1.06 -2.45,-0.7 -5.41,-3.84 -8.92,-9.43l-100.56 -200.09 -15.72 0 0 206.38c0,8.38 -5.23,13.64 -15.72,15.72 -10.46,2.09 -20.59,3.14 -30.39,3.14l-15.72 0 -14.66 1.06c-6.98,0 -13.97,-1.42 -20.95,-4.2 -6.98,-2.78 -11.16,-8.04 -12.58,-15.72l0 -209.53zm742.81 196.95c0.7,4.9 2.96,10.49 6.83,16.78 3.84,6.29 6.11,9.43 6.8,9.43l109.99 0 -132.01 -577.27 -1.06 -9.43c-0.7,-0.7 -1.03,-3.84 -1.03,-9.43l0 -15.72c0,-6.29 1.21,-12.03 3.66,-17.26 2.45,-5.26 7.5,-7.86 15.18,-7.86l19.92 0 0 -98.51 -177.06 0 -207.44 722.92 107.91 0 13.61 -13.64c0.7,-4.17 2.45,-11.34 5.26,-21.47 2.78,-10.13 5.74,-20.95 8.89,-32.47 3.14,-11.52 6.47,-23.04 9.95,-34.59 3.51,-11.52 6.29,-21.1 8.41,-28.81 1.39,-2.78 2.27,-5.23 2.6,-7.32 0.36,-2.09 0.88,-3.84 1.57,-5.23l9.43 -22.01 152.96 12.58 9.43 9.43c0.7,5.56 2.27,14.66 4.72,27.24 2.45,12.55 4.9,25.67 7.32,39.28 2.45,13.64 5.08,26.55 7.86,38.76 2.81,12.21 4.9,20.44 6.29,24.61zm-114.2 -509.16l6.29 -8.38 10.49 19.89c0,0.7 0.7,4.35 2.09,11.01 1.39,6.62 3.33,15.18 5.77,25.67 2.42,10.46 4.87,22.16 7.32,35.1 2.45,12.91 4.72,26 6.8,39.28l2.12 11.52c2.09,12.58 4.17,24.79 6.29,36.67 2.09,11.88 3.84,21.65 5.23,29.33l1.06 19.92c0,2.09 -0.36,6.44 -1.06,13.09 -0.7,6.62 -3.51,9.95 -8.38,9.95l-93.24 0 49.22 -243.06zm230.51 -111.05c2.78,-0.7 7.5,-1.94 14.12,-3.66 6.65,-1.75 13.82,-3.51 21.5,-5.26 7.68,-1.72 15,-3.3 21.98,-4.72 6.98,-1.39 11.88,-2.09 14.69,-2.09l17.81 0c5.56,0 11.01,0.7 16.24,2.09 5.23,1.42 9.25,6.29 12.03,14.66l54.48 280.79 9.43 10.49c0.7,-4.2 1.75,-9.61 3.14,-16.27 1.39,-6.62 2.78,-13.42 4.2,-20.41 1.39,-6.98 2.6,-13.27 3.66,-18.87 1.03,-5.59 1.57,-9.07 1.57,-10.46 0.7,-7.01 1.9,-18.17 3.66,-33.53 1.75,-15.39 4.02,-32.84 6.8,-52.4 2.81,-19.56 5.77,-39.97 8.92,-61.29 3.14,-21.32 6.29,-41.72 9.43,-61.29 3.14,-19.56 6.11,-37.01 8.89,-52.4 2.81,-15.36 5.23,-26.88 7.35,-34.56l13.61 -30.39 133.06 0 -156.1 719.74c-6.29,30.75 -24.1,46.11 -53.43,46.11 -6.29,0 -11.19,-0.18 -14.66,-0.51 -3.51,-0.36 -5.96,-1.39 -7.35,-3.14 -1.39,-1.75 -2.45,-4.2 -3.14,-7.35 -0.7,-3.14 -1.75,-7.86 -3.14,-14.15 -0.7,-2.78 -1.9,-5.93 -3.66,-9.4 -1.75,-3.51 -3.33,-7.35 -4.72,-11.55l-140.38 -620.21zm429.55 -52.4c4.87,-0.7 9.77,-1.21 14.66,-1.57 4.9,-0.33 9.07,-0.88 12.58,-1.57 17.45,-2.09 33.5,-3.84 48.19,-5.23 14.66,-1.39 28.63,-2.63 41.91,-3.66 13.27,-1.06 26.7,-1.75 40.33,-2.12 13.61,-0.33 28.81,-0.51 45.56,-0.51 3.51,0 8.92,0.18 16.24,0.51 7.35,0.36 13.09,0.88 17.29,1.57l5.23 0 15.72 16.78 0 105.82 -165.54 0 0 163.42 124.69 0 0 118.4 -110.02 0 0 198.01 124.69 0 0 104.76 -247.26 0 0 -341.53c0,-61.47 1.39,-121.54 4.2,-180.2 2.78,-58.69 5.56,-115.26 8.38,-169.74l3.14 -3.14zm420.11 590.91l150.87 0 -11.52 103.71 -246.23 0 0 -45.05c0,-16.05 0.36,-35.1 1.06,-57.08 0.7,-22.01 1.39,-42.09 2.09,-60.26 0.7,-1.39 1.06,-6.62 1.06,-15.72l0 -14.66 0 -20.95 0 -369.83c4.2,-31.41 6.62,-55.51 7.35,-72.29 0.7,-16.75 1.39,-26.18 2.09,-28.27 1.39,-3.51 6.29,-8.04 14.66,-13.64 5.59,-2.09 14.15,-3.84 25.67,-5.23 11.52,-1.39 29.15,-2.09 52.91,-2.09l0 601.37z"/>
                    <path className="white"
                          d="M6323.32 6165.13c-73.83,25.49 -135.69,53.18 -213.43,72.14 -77.7,18.96 -171.28,29.18 -258.24,35.28 -86.96,6.11 -167.32,8.07 -267.25,1.15 -99.93,-6.89 -219.41,-22.71 -349.79,-26.76 -130.37,-4.05 -271.66,3.66 -391.93,17.45 -120.27,13.79 -219.57,33.62 -313.81,45.87 -94.27,12.25 -183.5,16.84 -266.88,16.33 -83.39,-0.51 -160.94,-6.14 -227.31,-3.63 -66.37,2.54 -121.51,13.21 -171.55,31.9 -50.04,18.69 -94.94,45.38 -151.2,52.64 -56.24,7.29 -123.81,-4.87 -223.56,1.84 -99.74,6.74 -231.66,32.35 -321.88,57.63 -90.22,25.25 -138.78,50.13 -149.96,49.13 -11.19,-0.97 14.97,-27.82 57.48,-55.69 42.54,-27.85 101.41,-56.75 184.28,-77.43 82.9,-20.71 189.78,-33.26 269.73,-52.64 79.97,-19.38 132.94,-45.62 203.03,-71.66 70.11,-26.03 157.34,-51.82 240.46,-63.8 83.09,-11.97 162.06,-10.1 235.95,-1.87 73.89,8.22 142.74,22.83 231.42,26.97 88.71,4.14 197.25,-2.21 305.58,-17.26 108.33,-15.06 216.45,-38.88 311.45,-56.75 95,-17.9 176.87,-29.87 253.01,-22.31 76.1,7.56 146.46,34.62 229.82,38.28 83.33,3.66 179.63,-16.12 249.68,-13.42 70.05,2.72 113.83,27.91 170.16,30.3 56.36,2.42 125.29,-17.96 196.41,-32.77 71.11,-14.78 144.43,-24.04 213.76,-31.93 69.33,-7.89 134.7,-14.45 124.48,-6.08 -10.22,8.34 -96.03,31.63 -169.89,57.11z"/>
                    <path className="white"
                          d="M9346.78 4017.25c-9.55,7.53 -23.4,5.9 -30.93,-3.63 -7.53,-9.55 -5.93,-23.4 3.63,-30.93 53.94,-42.57 107.88,-85.17 122.69,-123.18 11.73,-30.2 -2,-63.67 -14.45,-93.97 -2.33,-5.71 -4.63,-11.31 -5.74,-14.15 -7.74,-19.65 -13.55,-38.1 -17.39,-54.85 -4.05,-17.63 -5.96,-33.56 -5.62,-47.29 0.33,-15.21 3.3,-27.7 9.16,-39.4 5.68,-11.28 13.61,-21.01 24.19,-31.14 7.38,-7.07 15.6,-14.03 24.34,-21.41 13.48,-11.37 28.27,-23.86 40.27,-37.19 9.43,-10.52 17.29,-21.71 22.89,-33.56 5.05,-10.67 8.34,-21.86 9.37,-33.5 1.15,-12.85 -0.24,-26.94 -2.93,-41.63 -2.81,-15.33 -7.2,-31.93 -11.58,-48.53 -3.11,-11.79 3.93,-23.86 15.72,-26.97 11.79,-3.11 23.86,3.93 26.94,15.72 4.54,17.14 9.07,34.29 12.28,51.82 3.33,18.14 5.02,36.04 3.48,53.36 -1.54,17.32 -6.23,33.5 -13.33,48.56 -7.59,15.99 -17.84,30.75 -29.99,44.26 -13.88,15.42 -29.93,29 -44.6,41.36 -8.34,7.04 -16.21,13.7 -22.25,19.47 -7.2,6.89 -12.31,12.94 -15.36,19.08 -2.87,5.71 -4.35,12.21 -4.54,20.53 -0.21,10.01 1.33,22.34 4.6,36.58 3.36,14.57 8.53,30.93 15.48,48.62 2.45,6.23 3.93,9.86 5.41,13.48 15.63,38.04 32.9,80.06 14.78,126.59 -19.14,49.22 -77.82,95.54 -136.51,141.86z"/>
                    <path className="white"
                          d="M9302.06 3871.73c-6.02,10.61 -19.47,14.3 -30.05,8.31 -10.61,-6.02 -14.33,-19.5 -8.31,-30.08 8.59,-15.03 17.17,-30.08 23.46,-43.93 5.47,-12 9.07,-22.68 8.95,-30.63 -0.15,-11.7 -11.19,-23.04 -21.19,-33.26 -1.87,-1.97 -3.75,-3.87 -5.35,-5.53 -7.56,-7.98 -14.06,-15.9 -19.38,-23.49 -5.77,-8.28 -10.1,-16.18 -12.82,-23.34 -3.3,-8.71 -4.47,-16.57 -3.81,-24.67 0.63,-7.56 2.81,-14.69 6.38,-22.62 2.36,-5.23 4.9,-10.04 7.59,-15.12 3.96,-7.56 8.34,-15.81 11.1,-23.4 2.06,-5.65 3.36,-11.25 3.66,-16.69 0.27,-4.69 -0.15,-9.22 -1.45,-13.55 -1.51,-4.9 -4.38,-10.31 -7.98,-15.96 -4.47,-7.07 -9.16,-13.36 -13.88,-19.65 -7.29,-9.74 -5.32,-23.55 4.41,-30.84 9.74,-7.32 23.55,-5.32 30.84,4.41 5.74,7.68 11.52,15.36 15.96,22.4 5.35,8.44 9.89,17.26 12.79,26.85 2.93,9.64 3.93,19.26 3.39,28.75 -0.57,9.95 -2.81,19.77 -6.26,29.33 -3.87,10.58 -8.92,20.17 -13.55,28.9 -2.51,4.78 -4.9,9.31 -6.35,12.55 -1.51,3.33 -2.39,5.96 -2.57,8.07 -0.15,1.6 0.18,3.42 1.06,5.68 1.48,3.93 4.05,8.53 7.62,13.64 3.9,5.59 9.01,11.76 15.24,18.32 1.75,1.84 3.36,3.51 4.99,5.17 15.81,16.18 33.29,34.07 33.65,63.52 0.18,15.45 -4.96,32.08 -12.76,49.28 -6.95,15.33 -16.18,31.44 -25.37,47.56z"/>
                    <path className="white"
                          d="M8542.23 4063.36c37.37,-9.25 74.92,-17.42 114.86,-23.83 60.38,-9.64 125.84,-15.12 203.72,-13.79 77.73,1.3 133.52,5.47 186.79,15.03 33.11,5.96 65.04,13.94 100.47,24.58 -8.74,-7.14 -15.51,-12.61 -19.96,-16.15 -8.22,-6.53 -17.05,-14.45 -26.52,-22.92 -48.29,-43.18 -114.05,-101.95 -257.51,-99.96l-0.3 0c-143.46,-2 -209.23,56.78 -257.51,99.96 -9.46,8.47 -18.29,16.39 -26.52,22.92 -4.02,3.2 -9.95,7.98 -17.54,14.15zm664.74 50.31c-64.7,-22.01 -113.41,-36.37 -164.3,-45.5 -51.64,-9.28 -106.12,-13.33 -182.32,-14.6 -76.04,-1.3 -139.96,4.02 -198.92,13.48 -58.84,9.4 -113.2,23.04 -170.01,38.34l-0.06 -0.3 -24.37 20.02c46.44,-12.82 94.33,-24.43 145.13,-33.59 75.83,-13.73 157.64,-21.83 249.86,-20.08 92.34,1.75 162.75,8.04 229.91,21.53 44.57,8.92 87.68,20.98 134.79,36.92l-19.71 -16.21zm-780.57 8.8c58.14,-47.83 102.65,-84.45 116.01,-95.09 8.38,-6.65 16.57,-13.97 25.34,-21.8 51.67,-46.23 122.06,-109.18 276.2,-107.09 154.14,-2.09 224.52,60.86 276.2,107.09 8.77,7.83 16.96,15.15 25.34,21.8 13.36,10.64 57.96,47.35 116.19,95.24 31.99,26.33 68.18,56.12 105.73,86.96 72.44,59.47 150.51,123.33 214.67,174.94 62.68,50.43 109.93,87.47 121.21,93.79 43.02,24.04 48.92,64.76 49.71,73.68 0.12,0.73 0.18,1.45 0.18,2.21l0 552.66c-12.85,-3.57 -25.52,-6.8 -38.79,-9.71 -31.35,-6.86 -65.82,-11.88 -101.2,-15.6l112.05 0 0 -45.53 -572.62 0 0 45.53 104.16 0c-42.9,4.69 -89.56,10.73 -139.14,15.87l0 -439.89c-30.75,-1.72 -62.95,-3.39 -95.75,-4.84l-434.78 0c-5.62,0.27 -11.25,0.54 -16.84,0.82l0 431.45c-11.88,-1.57 -23.52,-3.14 -34.98,-4.72l0 -44.23 -572.62 0 0 42.42c-9.55,0.18 -18.84,0.12 -27.94,-0.24l0 -524 0.06 -0.45c0,-0.12 1.36,-48.38 49.83,-75.44 23.7,-13.24 195.71,-153.59 343.29,-274.84l-0.03 -0.12 0.3 -0.09c32.9,-27 65.49,-53.82 98.23,-80.79zm864.69 60.38c-77.19,-29.42 -139.47,-49.46 -204.66,-62.53 -65.82,-13.18 -134.67,-19.38 -224.86,-21.07 -90.28,-1.72 -170.34,6.23 -244.54,19.62 -71.96,13 -138.9,31.32 -204.42,51.01l-21.04 17.29c71.51,-18.02 181.95,-45.29 216.18,-50.89 26.49,-4.35 64.4,-8.19 105.61,-10.91 40.64,-2.69 84.33,-4.32 123.36,-4.32 39.4,0 83.51,1.45 134.42,6.11 50.67,4.63 107.42,12.4 171.82,25.09 62.53,12.34 117.55,26.85 157.8,38.58l-9.68 -7.98zm67.51 55.51c-14.72,-5.17 -104.58,-35.8 -220.99,-58.72 -63.95,-12.61 -119.64,-20.29 -168.98,-24.79 -49.1,-4.47 -92.58,-5.87 -131.91,-5.87 -38.97,0 -82.03,1.6 -121.63,4.2 -40.42,2.69 -77.37,6.41 -102.86,10.58 -46.14,7.56 -234.2,55.45 -271.15,64.88 -147.46,121.09 -317.71,259.87 -342.92,273.96 -32.35,18.08 -35.28,47.65 -35.53,51.58l0.03 2.33c51.43,-8.95 210.83,-36.4 282.88,-45.93 42.54,-5.59 131.04,-14.91 234.44,-22.74l0.24 -0.21 0.18 0.18c20.68,-1.57 41.97,-3.05 63.58,-4.47 88.2,-5.71 182.53,-9.77 266.52,-9.4 195.01,0.91 432.66,21.65 523.46,29.57l15.54 1.36c45.23,3.9 149.12,15.36 241.82,28.54 52.43,7.44 101.23,15.45 133.91,22.98l0 -2.6c-0.39,-5.17 -4.05,-33.62 -35.5,-51.19 -12.91,-7.2 -61.44,-45.14 -125.11,-96.39 -59.68,-48.01 -134.73,-109.36 -206.02,-167.86zm-205.99 421.2l0 275.8 572.62 0 0 -219.17c-18.87,-3.84 -44.75,-7.89 -74.35,-11.94l-0.48 0.33 -0.27 -0.42c-19.5,-2.66 -40.61,-5.32 -62.4,-7.89 -92.07,-10.85 -195.38,-20.35 -240.43,-23.58l-15.51 -1.12c-38.37,-2.78 -102.89,-7.47 -179.17,-12zm572.62 303.38l-572.62 0 0 45.5 572.62 0 0 -45.5zm-1762.57 45.5l572.62 0 0 -45.5 -572.62 0 0 45.5zm0 -73.08l572.62 0 0 -280.01c-125.29,6.95 -237.13,16.54 -286.48,21.95 -72.84,7.98 -240,32.02 -286.14,38.73l0 219.32zm635.17 153.23l0 -403 1.33 0 490.89 0 0 414.58c-12.55,1.18 -25.28,2.27 -38.16,3.27l0 -381.78 -415.91 0 0 371.62c-13,-1.51 -25.7,-3.08 -38.16,-4.69zm56.99 6.83l0 -352.48 378.24 0 0 361.85c-7.14,0.48 -14.3,0.91 -21.53,1.3 -104.58,5.74 -218.14,2.27 -314.96,-6.5 -14.27,-1.3 -28.18,-2.69 -41.75,-4.17zm1070.41 -407.66l0 -24.7 -4.87 -5.44 -34.89 23.43c14.91,2.24 28.33,4.5 39.76,6.71zm0 -66.91l0 -35.8c-7.07,-1.72 -15.18,-3.51 -24.1,-5.32l-8.28 5.56 32.08 35.77 0.3 -0.21zm-1762.57 -36.01l0 31.29 26.58 -29.81 -7.23 -4.84c-7.77,1.33 -14.3,2.48 -19.35,3.36zm0 103.01c8.47,-1.24 19.92,-2.87 33.47,-4.81l-33.2 -25.34 -0.27 30.14zm52.73 -25.19l30.99 -38.01 -33.74 -22.65 -31.11 34.86 33.86 25.79zm1686.2 -25.97l-32.08 -35.77 -32.08 21.53 30.2 37.04 33.95 -22.8zm-57.39 38.52l0.21 -0.15 -30.2 -37.01 -37.04 24.82 4.08 4.54c21.01,2.48 42,5.02 62.95,7.8zm-1580.17 -72.2l33.59 -41.18c-20.05,3.33 -39.7,6.65 -57.81,9.74l-8.47 9.49 32.68 21.95zm23.25 15.57l36.92 24.79 34.74 -38.79 -38.04 -27.24 -33.62 41.24zm60.26 40.42l3.66 2.45c22.98,-3.05 44.99,-5.93 64.13,-8.28l4.6 -4.93 -38.22 -27.36 -34.17 38.13zm-42.09 5.29l-35.86 -24.07 -29.84 36.58c19.53,-2.75 40.79,-5.71 62.25,-8.68l3.45 -3.84zm1545.27 -84.29l-9.83 -10.98c-16.96,-2.69 -35.01,-5.38 -53.52,-8.01l-0.09 -0.03 32.47 39.82 30.96 -20.8zm-121.63 81.6l6.02 -4.02 -32.62 -36.4 -40.45 28.97 4.72 5.08c20.08,1.97 41.12,4.11 62.34,6.38zm29.33 -19.65l38.13 -25.58 -32.2 -39.49 -39.12 28 33.2 37.07zm-1419.83 -86.29l39.09 28 36.16 -40.36c-0.36,-0.27 -73.92,10.73 -75.25,12.37zm61.83 44.29l38.67 27.66 35.65 -38.31 -38.64 -29.18 -35.68 39.82zm61.5 44.02l4.81 3.45c17.32,-1.72 37.31,-3.57 61.98,-5.62l6.41 -6.86 -38.04 -28.72 -35.16 37.76zm1152.04 6.26l6.08 -4.35 -34.62 -37.19 -39.85 30.08 6.17 6.26c15.48,1.15 37.01,2.93 62.22,5.2zm28.9 -20.71l40.88 -29.27 -35.19 -39.28 -40.79 30.81 35.1 37.73zm63.64 -45.56l39.91 -28.57c-24.94,-3.33 -50.01,-6.44 -73.83,-9.28l33.92 37.85zm-1251.72 -44.69l39.03 29.51 33.68 -36.19 -3.72 -2.93c-27.21,2.81 -50.1,5.41 -67.15,7.56l-1.84 2.06zm61.41 46.41l38.67 29.21 33.71 -34.23 -39.12 -30.78 -33.26 35.8zm61.07 46.17l7.29 5.47c21.13,-1.6 43.69,-3.2 67.21,-4.78l-41.15 -34.56 -33.35 33.86zm919.05 9.19l7.11 -5.38 -35.95 -36.49 -40.45 31.84 5.68 5.65c23.64,1.57 45.08,3.05 63.61,4.38zm29.51 -22.31l40.48 -30.57 -35.83 -38.55 -40.97 32.23 36.31 36.89zm62.83 -47.47l40.06 -30.23c-30.39,-3.42 -56.75,-6.11 -75.44,-7.8l35.37 38.04zm-1020.12 -41.88l39.76 31.29 38.85 -39.49 -3.24 -2.54c-25.13,2.03 -49.01,4.14 -71.17,6.23l-4.2 4.5zm61.77 48.62l42.66 33.56 39.43 -39.03 -43.21 -34.01 -38.88 39.49zm65.73 51.73c15.78,-0.97 31.87,-1.87 48.13,-2.78 9.16,-0.48 18.38,-0.97 27.63,-1.42l3.24 -3.69 -40.61 -31.96 -38.4 39.85zm683.1 3.48l5.87 -4.63 -39.4 -39.03 -41.18 32.41 7.41 7.26c23.83,1.3 45.47,2.66 67.3,3.99zm27.94 -21.98l40.73 -32.05 -38.85 -39.46 -41.3 32.5 39.43 39zm62.74 -49.37l41.09 -32.32c-21.74,-1.9 -48.74,-4.2 -79.46,-6.65l38.37 38.97zm-780.94 -43.33l43.48 34.23 37.76 -37.4 -6.41 -5.32c-6.02,0.36 -12,0.76 -17.96,1.12 -18.05,1.18 -35.86,2.42 -53.27,3.72l-3.6 3.66zm65.55 51.58l40.73 32.05 36.52 -35.74 -40.03 -33.2 -37.22 36.89zm62.8 49.4l4.72 3.72c22.8,-0.94 45.72,-1.78 68.42,-2.42l3.3 -2.93 -40.45 -33.56 -35.98 35.19zm436.65 6.74l8.38 -6.59 -36.13 -35.37 -39.7 32.93 7.14 6.38c8.59,0.33 60.32,2.66 60.32,2.66zm30.45 -23.98l41.3 -32.5 -37.4 -37.01 -40.58 33.65 36.67 35.86zm63.37 -49.86l41.57 -32.71 -0.15 -0.12c-24.64,-1.87 -50.92,-3.75 -78.28,-5.59l-1.09 0.91 37.94 37.52zm-536.12 -38.91l40.15 33.32 41.12 -40.24 -3.24 -2.75c-23.67,0.82 -47.56,1.87 -71.38,3.11l-6.65 6.56zm61.68 51.19l41.45 34.38 41.94 -37.46 -42.63 -36.77 -40.76 39.85zm63.07 52.34l3.17 2.63c26.03,-0.45 52,-0.6 78.04,-0.48l2.9 -2.51 -42.57 -36.74 -41.54 37.1zm201.21 4.5l6.23 -5.14 -39.49 -35.25 -41.21 35.53 3.02 2.57 -0.42 0.51c23.7,0.42 47.77,1.03 71.87,1.78zm27.88 -23.1l40.67 -33.74 -38.76 -37.94 -41.78 36.07 39.88 35.62zm62.19 -51.64l40.73 -33.77 -1.87 -1.84c-24.94,-1.51 -50.49,-2.93 -76.22,-4.17l-1.75 1.51 39.12 38.28zm-293.64 -41.48l43.6 37.58 41.97 -37.46 -4.08 -3.66c-26.21,-0.15 -52.37,0.12 -78.58,0.7l-2.9 2.84zm64.85 55.9l42.93 37.07 41.57 -35.86 -42.9 -38.34 -41.6 37.13zm105.76 -17.11l42.75 -36.89 -2.27 -2.24c-27,-1.09 -54,-1.94 -80.49,-2.51l-3.3 2.96 43.3 38.67z"/>
                    <path className="white"
                          d="M9938.99 5157.8c-111.66,-28.57 -161.85,-49.62 -224.61,-63.34 -62.74,-13.76 -138.05,-20.17 -207.99,-23.4 -69.9,-3.24 -134.45,-3.27 -214.55,4.17 -80.09,7.47 -175.73,22.43 -280.31,28.18 -104.58,5.74 -218.14,2.24 -314.96,-6.5 -96.81,-8.77 -176.9,-22.83 -252.82,-30.84 -75.89,-8.01 -147.61,-10.01 -214.55,-8.01 -66.94,2 -129.1,8.01 -182.29,12.52 -53.18,4.54 -97.42,7.53 -138.66,3.02 -41.24,-4.5 -79.49,-16.54 -125.29,-18.05 -45.81,-1.51 -99.17,7.5 -179.05,2.99 -79.85,-4.5 -186.25,-22.56 -275.11,-32.8 -88.86,-10.25 -160.21,-12.67 -162.66,-4.66 -2.45,8.01 63.98,26.46 114.59,39.7 50.61,13.27 85.41,21.32 145.85,29.33 60.41,8.04 146.49,16.05 211.4,21.59 64.94,5.5 108.72,8.53 165.9,19.56 57.14,11.01 127.68,30.08 194.62,38.1 66.94,8.01 130.28,5.02 189.45,-3.02 59.17,-8.01 114.17,-21.04 185.28,-26.06 71.11,-5.02 158.37,-2 245.63,8.01 87.26,10.04 174.52,27.09 251.01,35.1 76.52,8.01 142.26,7.01 203.21,-0.51 60.95,-7.5 117.16,-21.53 184.07,-21.53 66.94,0 144.64,14.03 200.82,10.52 56.18,-3.51 90.86,-24.58 136.06,-27.57 45.17,-3.02 100.89,12.03 158.28,22.56 57.39,10.52 116.4,16.54 224.1,31.05 107.7,14.51 264.07,37.55 255.73,31.02 -8.38,-6.5 -181.5,-42.57 -293.16,-71.11z"/>
                    <path className="white"
                          d="M5151.27 5986.69c1.51,17.32 3.11,39.34 2.33,55.96 -0.82,16.66 -4.05,27.94 -8.47,46.47 -4.44,18.5 -10.07,44.29 4.41,57.6 14.51,13.3 49.16,14.09 80.58,14.09 31.44,0 59.62,-0.79 78.55,-18.93 18.96,-18.14 28.63,-53.58 21.83,-78.16 -6.8,-24.58 -30.08,-38.28 -43.15,-58.38 -42.27,-65.13 -21.47,-332.04 -19.32,-397.26 5.05,-151.9 52.12,-201 87.05,-317.59 -94,24.85 -119.52,35.77 -232.39,31.69l18.11 558.29c3.6,35.62 7.38,70.39 10.46,106.22zm-867.08 -2449.39c4.93,-26.06 12.34,-56.09 22.37,-82 10.04,-25.88 22.71,-47.65 35.13,-62.56 12.43,-14.91 24.58,-22.98 46.17,-27.82 21.56,-4.87 52.55,-6.53 85.17,-7.53 32.65,-1 66.94,-1.33 90.67,-0.09 23.76,1.21 37.01,4.02 44.11,5.41 7.07,1.39 8.01,1.39 -1.09,36.86 -9.1,35.5 -28.21,106.43 -39.34,146.09 -11.13,39.64 -14.3,47.98 -17.9,53.46 -3.63,5.47 -7.71,8.07 -26.36,10.58 -18.62,2.51 -51.85,4.93 -91.1,5.29 -39.21,0.36 -84.51,-1.3 -111.78,-2.87 -27.27,-1.57 -36.55,-3.08 -39.97,-14.88 -3.45,-11.79 -1.03,-33.86 3.9,-59.96zm-1046.22 -1348.14c0,0 104.28,-0.7 152.63,13.12 48.35,13.82 105.64,39.37 105.64,39.37 0,0 -50.4,-4.14 -57.99,0 -7.59,4.14 42.81,101.5 132.58,137.42 0,0 -62.16,-54.54 -56.63,-114.62 0,0 50.43,36.58 88.41,61.44 37.98,24.88 106.34,53.18 106.34,53.18 0,0 -35.22,9.68 -109.12,-21.41 0,0 15.51,29.81 87.26,37.52 0,0 4.54,9.55 -40.88,12.28 0,0 10.61,14.06 62.74,16.33 52.16,2.27 -0.76,13.48 -11.4,15.06 -10.67,1.57 -35.53,5.93 -35.53,5.93 0,0 24.07,9.07 50.92,7.89 26.85,-1.18 39.49,-5.14 39.49,2.36 0,7.53 -32.77,47.41 -32.77,47.41 0,0 28.42,-9.49 36.74,-5.93 8.28,3.54 -37.91,79.76 -37.91,79.76 0,0 36.71,-11.85 45.41,-9.49 8.68,2.39 -32.77,45.81 -32.77,45.81 0,0 35.13,-3.96 44.63,7.11 9.46,11.07 -46.59,46.59 -46.59,46.59 0,0 76.98,-22.49 84.48,-19.35 7.5,3.17 -28.81,55.27 -28.81,55.27 0,0 56.06,-11.82 70.66,-8.28 14.63,3.57 -11.82,53.7 -11.82,53.7 0,0 56.45,-21.32 66.34,-16.96 9.86,4.32 -16.6,47.77 -16.6,47.77 0,0 54.48,-26.06 68.3,-20.92 13.82,5.14 12.25,16.96 -5.11,30.78 0,0 38.67,-10.64 36.31,-18.53 -2.36,-7.92 -26.85,-33.17 -56.06,-75.04 -29.24,-41.85 -92.31,-163.33 -127.44,-216.42 -35.13,-53.09 -57.39,-87.95 -124.08,-131.64 -66.73,-43.66 -107.45,-80.85 -132.25,-103.89 -24.79,-23.01 -26.55,-27.15 -21.83,-29.51 4.72,-2.36 86.17,41.33 116.28,62.59 30.11,21.22 122.78,94.42 152.9,132.22 30.08,37.76 81.45,115.83 106.61,155.35 25.16,39.52 82.63,141.68 91.88,160.15 9.22,18.47 32.32,43.63 34.89,34.89 2.57,-8.71 -11.28,-25.67 12.31,-12.82 23.61,12.82 67.76,40.03 67.76,40.03 0,0 -13.33,3.6 -41.57,-0.51 0,0 32.87,20.02 35.44,28.75 2.57,8.71 -59.05,0 -59.05,0 0,0 33.38,14.88 36.46,28.75 3.08,13.85 -42.6,11.28 -42.6,11.28 0,0 49.77,24.13 71.32,20.02 21.59,-4.11 -39.52,30.3 -39.52,30.3 0,0 43.63,13.33 68.27,8.71 24.64,-4.6 20.02,11.82 -14.36,29.78 0,0 65.04,-3.9 68.91,3.08 3.9,6.98 -27.15,25.22 -27.15,25.22 0,0 10.85,3.51 23.28,0 12.43,-3.48 25.61,-7.74 5.44,15.15 -20.2,22.89 -47.35,34.56 -47.35,34.56 0,0 -5.84,-21.74 -1.97,-26.79 3.9,-5.05 -32.29,16.08 -34.04,41.03 0,0 -6.17,-14.66 -1.18,-46.65 0,0 -26.12,60.47 -55.75,83.06 0,0 25.52,-42.84 16.45,-82.48 0,0 -9.4,26.43 -21.13,41.39 0,0 8.5,-19.96 -6.77,-55.75 -15.24,-35.8 -44.02,-52.25 -50.46,-54 -6.47,-1.78 -47.83,-27 -57.23,-63.1 0,0 -11.73,29.63 13.21,67.21 0,0 -49.31,-51.37 -54,-82.18 0,0 -18.5,22.59 -6.47,66.31 0,0 -38.16,-28.15 -44.6,-87.74 0,0 -20.86,22.62 -16.45,54 0,0 -33.47,-18.47 -33.74,-81.3 0,0 -36.4,36.98 -32.29,81.3 0,0 -27.57,-9.98 -28.18,-98.9 0,0 -55.69,83.24 -82.87,102.25 0,0 29.24,-109.36 22.59,-136.03 0,0 -124.75,114.98 -157.1,130.37 0,0 93.94,-142.19 106.79,-178.63 0,0 -134.51,81.6 -157.1,80.58 0,0 61.1,-86.74 94.45,-118.07 0,0 -133.97,68.78 -203.78,87.26 0,0 98.57,-78.52 138.6,-99.05 0,0 -152.96,59.53 -197.1,51.31 0,0 141.17,-76.98 206.35,-101.11 0,0 -243.33,80.58 -282.85,56.96 0,0 159.13,-66.21 260.78,-96.48 0,0 -283.88,56.96 -325.45,25.64 0,0 250.5,-41.57 300.29,-72.35 0,0 -305.95,22.07 -329.56,-8.74 0,0 223.8,-40.03 328.53,-54.94 0,0 -317.22,10.28 -333.16,-3.08 -15.9,-13.33 303.89,-41.57 303.89,-41.57 0,0 -380.9,-25.67 -387.04,-42.09 -6.17,-16.42 374.73,-16.42 374.73,-16.42 0,0 -373.43,-31.38 -385.65,-54.48 -12.21,-23.07 381.53,-4.75 381.53,-4.75 0,0 -286.48,-44.11 -290.56,-54.3 -4.08,-10.19 275.62,16.96 275.62,16.96l-160.73 -56.21zm1060.22 616.97c0,0 22.89,8.28 40.15,25.22 0,0 2.66,4.05 4.93,0.82 2.27,-3.24 9.49,-5.68 14.78,-3.6 5.32,2.09 10.07,10.22 3.99,12.52 -6.08,2.27 -10.43,1.33 -10.43,1.33 0,0 4.32,3.45 3.48,7.38 -0.85,3.93 -7.01,5.87 -7.01,5.87 0,0 -3.08,5.59 -12.88,4.2 0,0 10.95,5.32 12.61,10.91 1.69,5.59 -95.45,58.5 -103.83,60.2 -8.41,1.66 1.39,-28.57 1.39,-28.57 0,0 -61.59,22.68 -60.47,11.49 1.12,-11.19 16.24,-23.52 16.24,-23.52 0,0 -67.15,10.64 -61.01,2.54 6.17,-8.13 31.93,-21.01 31.93,-21.01 0,0 -73.35,-16.24 -61.86,-25.46 11.46,-9.25 51.49,-11.19 51.49,-11.19 0,0 -46.74,-33.32 -31.35,-34.17 15.39,-0.82 34.44,-1.97 34.44,-1.97 0,0 -44.78,-28.81 -40.58,-34.41 4.2,-5.59 52.06,13.42 99.35,9.8 47.29,-3.63 106.61,4.75 123.99,7.29 17.35,2.51 52.88,20.71 58.47,30.78 5.62,10.07 -0.82,20.44 -6.41,22.95 -5.62,2.51 -20.71,3.08 -20.17,-4.47 0.57,-7.56 9.25,-9.52 9.25,-9.52 0,0 -57.66,-22.95 -90.49,-15.39zm116.49 28c0,0 13.18,2.78 20.44,9.8 7.29,6.98 18.47,19.59 18.47,31.05 0,11.49 -1.97,20.44 -5.32,21.83 -3.36,1.39 -7.83,1.97 -10.34,-12.03 -2.54,-14 -41.42,-27.15 -52.91,-26.03 -11.46,1.12 -21.83,1.69 -21.83,-1.66 0,-3.36 -3.9,-11.49 7.29,-11.22 11.19,0.3 25.46,1.48 44.2,-11.73zm-23.76 33.02c12.03,2.24 25.46,7.56 27.7,12.31 2.24,4.78 -5.32,10.1 -12.88,5.05 -7.56,-5.05 -18.44,-8.8 -24.34,-8.95 -12.94,-0.36 -13.06,-7.32 -5.5,-8.92 3.9,-0.85 9.28,-0.54 15.03,0.51zm-111.87 -122.94c0,0 144.34,10.4 158.49,73.59 0,0 41.03,18.87 41.97,55.18 0.94,36.31 -27.36,49.52 -35.83,50.46 -8.5,0.94 -24.55,-8.01 -27.85,-11.79 -3.3,-3.78 -36.8,-12.25 -47.17,-8.01 -10.37,4.23 -31.6,15.57 -48.1,25.94 -16.51,10.37 -58.47,31.14 -66.03,38.22 -7.53,7.07 -23.1,42.45 -42.45,59.41 -19.32,16.99 -60.38,30.2 -60.38,30.2 0,0 2.84,23.58 -10.37,57.05 -13.18,33.5 -53.27,122.63 -72.14,146.22 0,0 21.22,-1.42 51.88,8.95 30.63,10.37 52.82,25 49.49,61.8 -0.91,10.34 -12.79,23.07 -29.36,36.04 1.21,2.06 2.03,4.05 2.63,5.56 2.51,6.14 29.99,10.04 38.01,11.91 23.34,5.44 48.1,8.98 67.39,10.73 10.04,0.94 18.62,1.39 25.52,1.6 17.42,-32.32 38.73,-56.21 64.16,-68.33 45.35,-21.59 273.69,-14.27 347.97,-22.49 1.12,-38.91 -32.84,-67.18 -53.97,-124.11 -26.55,6.56 -80.55,17.35 -105.22,11.73 -14.15,-3.2 -21.86,-11.55 -17.05,-21.19 7.8,-15.57 87.68,-64.34 106.12,-74.65 -0.51,-12.55 -0.3,-26 0.7,-40.54 6.26,-89.71 70.57,-144.73 158.88,-152.35 46.56,-4.05 94.7,-0.06 129.5,23.83 8.47,5.77 16.72,13.79 24.13,23.01 12.43,-5.44 22.56,-9.55 31.93,-12.64 23.46,-7.71 42.12,-8.98 55.6,-8.04 13.51,0.97 21.86,4.2 19.62,17.05 -2.27,12.85 -15.12,35.34 -34.74,55.27 -11.31,11.52 -24.85,22.16 -44.57,34.41 -5.87,60.26 -26.09,19.89 13.91,109.69 14.15,31.78 11.61,58.84 7.17,93.91 -6.47,51.13 -7.68,38.61 -58.2,58.72l-13.64 61.68c-62.25,-74.08 -63.01,-71.29 -157.22,-53.61 50.01,16.15 64.43,15.57 113.93,49.77l-50.86 35.16c62.19,-2.03 95.51,-25.88 157.04,4.02 101.23,49.22 190.03,205.6 254.18,298.57l-24.43 -73.2c43.48,0.6 90.73,6.11 131.25,-11.01 0.06,-0.03 253.16,-175.94 226.31,76.31l-56.06 35.56c25.7,68.63 15.09,193.11 112.96,183.68 33.74,-3.27 60.59,-33.56 93.15,-49.19 46.77,-22.43 79.85,-14.63 109.72,-40.21l-112.41 -8.77c96.3,-55.42 183.01,3.78 257.93,25.52 26.79,83.02 62.5,67.51 34.83,126.41 -2.78,5.96 -12.73,26.24 -12.03,24.13 75.44,30.54 39.85,-5.44 80.88,79.64 16.21,33.59 40.48,74.56 45.2,118.67 13.39,125.66 -126.53,248.29 -210.25,106.25 -20.59,92.1 -72.9,134.39 -91.61,209.56 133.31,71.32 152.53,94.39 316.89,36.43l13.18 5.02c-31.93,40.64 -172.61,83.21 -241.67,83.36 -93.91,0.21 -145.16,-64.97 -201.15,-110.72 -47.59,-38.88 -129.04,-115.65 -200.97,-182.1 -56.66,-52.37 -103.89,-98.14 -115.29,-133.91l45.87 -44.57c-39.58,11.97 -59.96,31.96 -96.33,49.1 42.78,-94.3 130.43,-162.78 183.68,-218.08l-51.43 -249.38c-91.34,28.45 -149.21,150.57 -309.67,112.72 -99.99,-23.55 -197.01,-110.6 -273.32,-150.09 5.77,31.08 89.37,75.8 114.92,90.13 6.53,58.6 -13.79,105.04 -23.79,168.68l-141.29 -39.15c13.94,22.8 21.35,30.99 64.97,48.13 34.59,13.61 52.06,10.7 79,30.39 -9.31,45.9 -27.79,66.76 -73.92,82 48.77,27.39 83.81,10.07 89.98,59.65 -46.41,21.98 -102.68,13.76 -149.51,68.03 141.56,-23.46 123.12,-44.32 259.54,22.1 349.21,170.1 222.86,358.8 191.75,577.3 -5.84,40.97 -12.76,76.43 -37.76,162.15l-135.66 -7.74 43.69 -364.18c-15.06,-161.12 -336.91,-180.02 -373.16,-218.72 -82.96,-88.5 -248.59,-240.13 -403.94,-162.69 30.72,8.13 69.12,-3.24 104.19,0.24 37.91,3.78 88.56,25 118.94,38.64 137.78,61.71 305.16,318.95 349.61,424.53 -16.51,-23.92 -41.42,-48.41 -62.28,-80.06 -53.36,-80.97 -121.79,-190.24 -184.98,-251.34 -130.89,-126.53 -392.18,-156.41 -411.62,-18.11 -112.02,-6.05 -228.91,83.6 -312.99,89.71 68.81,-29.09 120.09,-63.55 204.72,-91.04 67.42,-21.89 57.02,-11.13 97.33,-56.9 30.14,-34.26 39.43,-52.22 65.55,-77.43 -31.81,-37.64 -47.29,-57.66 -73.29,-112.9 -59.11,-125.47 -79.12,-346.22 -53.33,-517.35 -2.87,-0.33 -6.83,-1 -12.28,-1.94 -19.74,-3.39 -59.23,-10.16 -93.58,-16.93 -34.32,-6.77 -63.49,-13.58 -85.44,-23.43 -21.95,-9.89 -36.67,-22.83 -45.96,-34.04 -7.56,-9.1 -11.49,-17.05 -13.03,-27.76l-0.33 -2.48c-42.99,16.69 -149.06,73.59 -156.65,-17.69 -3.3,-39.37 11.49,-76.28 11.49,-76.28 0,0 1.63,-30.36 -2.87,-39.37 -4.54,-9.04 -12.31,-4.11 -18.05,-10.28 -5.74,-6.14 -13.12,-24.19 -13.12,-24.19 0,0 -79.55,58.78 -113.02,77.16 -33.5,18.41 -95.75,46.23 -113.2,47.17 -17.48,0.97 -31.63,-9.89 -31.63,-9.89 0,0 -59.41,6.59 -67.42,-0.48 -8.04,-7.07 -10.4,-9.43 -18.87,-12.25 -8.5,-2.84 -37.98,-6.47 -50.7,-14.85 -12.7,-8.38 -12.7,-16.45 -14.27,-22.95 -1.54,-6.5 -28.21,-3.11 -36.89,-15.51 -8.68,-12.4 -13.64,-30.69 -2.18,-38.46 11.46,-7.74 123.12,-48.38 166.84,-73.8 43.75,-25.43 200.43,-114.35 216.84,-161.12 0,0 -1.72,-4.6 -6.56,-2.72 -4.87,1.9 -30.2,8.38 -39.91,5.93 -9.74,-2.42 1.33,-17.78 1.06,-24.52 -0.27,-6.74 -8.62,-5.14 -18.87,-2.96 -10.25,2.15 -36.13,10.25 -44.23,-2.18 -8.1,-12.4 4.87,-38.28 11.34,-52.85 6.47,-14.57 19.96,-36.4 17.51,-42.09 -1,-2.33 -1.57,-2.33 -2.75,-0.85 -30.87,37.85 -72.68,56.69 -131.73,54.12 -59.05,-2.54 -52.43,-60.8 -52.43,-60.8 -84.54,7.83 -70.42,-73.68 -70.42,-73.68 -31.72,10.58 -82.51,-26.03 -78.55,-72.65 0,0 -25.16,-1.06 -42.96,-34.07 -17.84,-33.02 -16.78,-72.87 -16.78,-72.87 0,0 -59.23,1.57 -68.66,-25.16 -9.46,-26.73 18.32,-35.65 18.32,-35.65 0,0 -74.95,-12.58 -80.18,-38.28 -5.26,-25.67 66.58,-30.93 66.58,-30.93 0,0 -99.08,-18.35 -104.85,-43.51 -5.77,-25.16 41.42,-41.42 41.42,-41.42 0,0 -108,-22.52 -119,-40.88 -11.01,-18.35 97.51,-18.35 97.51,-18.35 0,0 -162.51,-26.73 -173.52,-42.45 -11.01,-15.72 79.15,-24.13 79.15,-24.13 0,0 -138.39,-28.3 -142.59,-47.68 -4.2,-19.41 132.64,-6.83 132.64,-6.83 0,0 -116.37,-45.08 -157.28,-68.66 -40.88,-23.58 -80.73,-51.91 -76.52,-60.8 4.2,-8.92 66.03,37.22 131.04,51.37 65,14.15 135.78,12.58 135.78,12.58 0,0 -124.78,-63.43 -162.51,-92.79 -37.73,-29.36 -82.3,-82.81 -81.24,-94.36 1.03,-11.52 49.25,46.65 121.6,71.81 72.35,25.19 181.38,49.83 181.38,49.83 0,0 -90.67,-49.83 -124.24,-90.19 -33.56,-40.36 -51.37,-100.11 -49.28,-106.91 2.12,-6.83 47.2,72.32 143.1,113.2 95.94,40.91 366.96,104.85 408.9,123.21 0,0 -3.66,-42.99 11.52,-42.45 15.21,0.51 191.36,97.48 267.88,161.45 25.22,21.04 48.92,46.29 69.39,70.72 61.04,81.45 91.82,125.08 143.46,216.09 90.22,-71.14 133.06,-127.89 181.23,-187.88 19.32,-24.04 42.27,-49.77 66.7,-71.14 8.41,-7.35 15.21,12.03 15.21,12.03 0,0 18.87,-56.6 35.13,-58.69 16.24,-2.12 25.67,25.16 25.67,25.16 0,0 5.26,-49.28 26.76,-73.41 21.47,-24.1 30.39,-32.5 38.79,-32.5 8.38,0 23.07,27.79 23.07,27.79 0,0 33.53,-52.94 44.02,-67.61 10.49,-14.69 33.02,-44.05 43.51,-45.08 10.49,-1.06 13.24,102.22 13.24,102.22 0,0 43.9,-124.78 65.91,-154.14 22.01,-29.36 30.93,-42.45 38.79,-44.57 7.86,-2.09 -36.16,89.13 -16.24,212.31 0,0 27.76,-84.9 43.51,-124.24 15.72,-39.31 63.43,-118.46 71.81,-121.09 8.38,-2.6 -25.16,67.09 -18.87,120.06 6.29,52.94 -9.98,219.11 -65,233.26 0,0 -89.83,156.16 -320.4,393.14zm-257.78 -111.54c0,-2.15 8.98,-63.74 20.41,-66.21 11.46,-2.45 21.04,18.26 21.04,18.26 0,0 8.34,-68.06 25.7,-71.48 17.32,-3.39 11.43,31.57 11.43,31.57 0,0 17.02,-55.99 25.7,-62.5 8.65,-6.5 16.39,16.72 16.39,16.72 0,0 8.65,-56.03 21.04,-60.95 12.37,-4.96 22.28,25.97 22.28,25.97 0,0 12.67,-78.28 25.67,-84.48 13,-6.17 27.85,56.93 27.85,56.93 0,0 26,-102.1 34.04,-100.86 8.04,1.24 29.99,78.61 29.99,78.61 0,0 34.68,-151.51 45.08,-155.77 10.4,-4.29 12.85,113.17 20.2,126.02 7.32,12.85 63.01,-151.72 71.57,-159.67 8.56,-7.95 7.95,125.41 14.66,133.37 6.74,7.95 57.51,-124.87 63.04,-133.7 5.5,-8.86 -8.59,126.35 -11.04,133.09 -2.45,6.71 55.06,-61.2 62.4,-58.75 7.35,2.45 -46.5,132.76 -74.62,167.02 -28.15,34.26 -250.83,248.38 -263.68,276.53 0,0 -93.43,-7.26 -104.28,-15.3 -10.85,-8.04 86.08,-24.94 86.08,-24.94 0,0 -54.3,-21.71 -90.52,-18.9 0,0 49.07,-51.49 118.67,-29.36 0,0 -9.64,-31.38 -101.38,-13.27 0,0 22.56,-32.59 118.28,-13.27 0,0 -30.17,-27.36 -84.48,-23.73 0,0 71.6,-24.55 119.46,-13.27 0,0 -26.12,-27.36 -86.08,-24.16 0,0 66.79,-25.34 126.71,-32.17 0,0 -36.19,-19.32 -90.49,-12.88 0,0 57.51,-28.54 130.31,-49.07 0,0 -51.07,2.42 -58.72,-4.41 0,0 50.28,-33.38 107,-32.99 0,0 -54.73,-25.76 -153.26,6.44 -98.57,32.17 -241.76,195.89 -256.24,225.25 0,0 -23.34,-41.03 -11.67,-55.09 11.67,-14.09 21.44,21.41 21.44,21.41zm34.14 520.58c0,0 -4.78,-14.63 10.19,-27.21 14.94,-12.55 37.98,-20.92 43.93,-18.84 5.99,2.12 -29.9,51.73 -32.59,69.96 -8.16,-24.07 14.21,-61.83 -21.53,-23.92zm-148 -168.05c0,0 27.21,-34.44 66.21,-37.37 39,-2.96 64.91,30.81 57.05,78.67 -7.86,47.86 -42,124.6 -58.32,154.47 -16.36,29.87 -107.09,93.58 -113.86,109.9 -6.77,16.36 4.5,-33.8 50.73,-105.94 0,0 -62.01,46.77 -87.38,65.94 0,0 23.67,-57.51 74.41,-116.13 0,0 -69.9,47.35 -89.62,53.55 0,0 61.44,-87.35 100.89,-100.86 0,0 -64.82,5.53 -76.65,19.47 0,0 55.24,-68.51 100.86,-72.47 0,0 -12.4,-14.09 -63.1,4.5 0,0 29.87,-36.61 114.98,-56.9 0,0 -19.17,-11.85 -76.22,3.17zm-16.27 394.6c0,0 -3.24,53.64 -3.24,61.5 0,7.86 -30.99,2.33 -30.08,-19.41 0.94,-21.74 33.32,-42.09 33.32,-42.09zm-21.74 -62.89c0,0 33.29,-10.64 46.23,-33.32 12.97,-22.65 28.21,-30.51 28.21,-30.51l23.61 44.38c0,0 -76.31,31.44 -95.75,56.9l-2.3 -37.46zm-126.05 -205.23c0,0 22.1,-21.71 27.91,-27.94 5.84,-6.23 13.45,-1 13.45,8.65 0,9.64 -3.2,24.91 -34.95,47.41 -31.72,22.49 -175.94,121.33 -247.47,157.07 0,0 75.53,-12.06 141.23,-44.99 0,0 -29.12,35.34 -97.84,62.68 0,0 47.02,-6.83 130.98,-39.79 0,0 -27.73,30.14 -53.82,47.02 0,0 98.02,-24.1 121.3,-41.78 0,0 -33.35,37.37 -88.38,66.27 -55.03,28.93 -94.82,59.08 -87.17,20.11 0,0 -78.34,13.18 -82.36,2.42 -4.02,-10.79 21.29,-19.29 21.29,-19.29 0,0 -88.38,10.43 -82.75,-1.6 5.62,-12.06 28.51,-27.33 28.51,-27.33 0,0 -79.52,12.85 -76.31,-2 3.2,-14.85 53.03,-24.52 90.37,-40.18 37.37,-15.66 203.69,-106.06 276.01,-166.72zm211.28 212.49c0,0 13.45,-19.38 44.08,-23.01 30.6,-3.6 78.22,-13.15 100.2,-6.56 22.01,6.56 32.59,21.29 34.04,53.33 0,0 -25.19,-31.23 -65.25,-34.07 0,0 13.94,25.55 9.77,56.18 -0.63,0.33 -1.3,0.7 -1.97,1.06 -4.72,-9.74 -21.74,-41.21 -47.83,-48.92 0,0 -0.06,64.85 -18.96,77.37 0,0 -3.02,-57.23 -23.92,-70.63 0,0 -51.64,75.5 -49.34,102.62 0,0 -11.16,-64.7 19.17,-107.36zm1160.48 1650.28c-1.12,16.66 -2.24,33.29 -3.24,48.59 8.89,5.23 19.29,9.07 32.68,11.19 23.86,3.81 57.23,2.15 79.37,-0.42 14.06,-1.63 23.61,-3.63 30.33,-5.71l-0.33 -29.09c-0.09,-7.41 -0.09,-7.41 -23.22,-10.28 -23.1,-2.84 -69.36,-8.56 -115.59,-14.27zm-5.26 70.45c-0.76,11.94 -3.54,52.94 -0.91,60.65 1.84,5.38 5.81,8.77 25.55,9.95 19.74,1.15 55.3,0.12 90.16,-4.26 34.86,-4.38 69.06,-12.09 91.82,-19.23 22.8,-7.14 34.2,-13.73 40.03,-30.57 5.87,-16.81 6.17,-43.9 6.11,-70.99 -0.03,-22.65 6.17,-51.88 -19.53,-59.17 -8.07,-2.27 -18.65,-2.57 -25.61,-0.7 -6.92,1.84 -10.22,5.87 -12.12,9.43 -13.27,24.82 -6.71,56.93 -27.3,88.68 -6.32,9.74 -16.84,15.66 -32.17,19.8 -15.33,4.14 -35.44,6.5 -56.3,7.2 -20.83,0.7 -46.41,-1.06 -58.66,-3.45 -12.25,-2.36 -15.15,-3.75 -21.07,-7.35zm214.73 -225.64c-3.69,21.53 -5.93,29.24 -7.04,33.08 -1.12,3.84 -1.12,3.84 4.17,7.86 5.29,3.99 15.87,12.03 24.37,19.74 8.47,7.74 14.85,15.15 19.77,25.46 4.9,10.31 8.28,23.52 12.21,39.34 3.93,15.84 8.38,34.26 14.78,43.93 6.41,9.71 14.75,10.7 22.1,4.81 7.38,-5.9 13.76,-18.69 15.96,-35.86 6.14,-47.65 -12.55,-114.98 -24.85,-160.28l-3.11 -12.21c-1.97,-8.34 -3.6,-16.99 -4.69,-26.09 59.41,65.55 64.58,183.59 41.09,268.27 -6.56,23.64 -16.48,38.13 -34.53,52.85 -18.05,14.75 -44.23,29.75 -82.21,39.49 -38.01,9.74 -87.8,14.21 -128.35,16.12 -40.54,1.9 -71.78,1.24 -89.59,0.03 -13.39,-0.94 -19.14,-2.18 -23.28,-3.27 -17.45,-116.07 26.03,-351.9 41.21,-473.15 21.68,-173.06 -215.33,-224.95 -286.17,-223.25 51.16,83.09 133.88,120.85 185.52,217.03 76.71,142.89 -116.59,171.16 -225.82,141.11 -177.12,-48.77 -170.71,-212.79 -281.4,-341.05 -34.56,-40.06 -67.09,-52.16 -107.64,-80l-14.09 -10.79c-84.75,6.77 -122.39,-21.13 -227.52,14.21 -77.1,25.91 -75.13,49.98 -182.77,67.76 -110.09,18.2 -277.74,110.84 -307.58,204.21l52.28 -28.15c-105.52,155.35 -110.6,225.88 -145.73,407.23 -9.64,49.77 -30.11,94.51 -40.64,150.36 28,-30.2 59.2,-59.65 75.62,-98.26 -17.66,215.67 -270.69,402.06 -320.7,491.53 55.24,-7.23 70.11,-6.17 114.92,0.27 -53.85,65.25 -77.28,82.9 -215.64,157.86 107.91,44.93 254.25,-63.1 311,-116.77 314.87,-297.93 258.96,-748.43 376.64,-956.51 4.11,9.49 -20.08,154.83 -20.11,200.12 -0.21,225.31 141.02,388.06 -24.22,576.43 -106.55,121.48 -163.06,100.77 -155.56,338.72 2.6,82.63 8.31,156.89 9.52,239.64 1.24,83.81 -9.58,154.53 51.1,191.18 -25.58,119.34 -14.69,98.6 16.21,121.97 -2.03,-0.42 -3.96,-0.88 -5.84,-1.33 4.05,7.89 7.71,14.75 17.48,18.56 14,5.5 40.58,4.72 64.34,-0.12 23.76,-4.84 44.72,-13.7 57.2,-22.98 12.49,-9.25 16.54,-18.93 17.75,-36.64 1.21,-17.75 -0.42,-43.51 -11.28,-62.86 -10.88,-19.35 -31.02,-32.23 -40.7,-41.91 -9.68,-9.64 -8.86,-16.12 -8.86,-25.37 0,-9.28 -0.82,-21.35 -6.05,-46.35 -23.34,-111.32 -68.48,-247.53 -38.76,-357.71 18.75,-69.6 69.21,-94.27 116.89,-144.04 47.65,-49.74 184.46,-226.91 189.21,-322.79 3.87,-78.25 -54.85,-130.25 -87.23,-173.58 -148,-197.98 -111.57,-483.4 18.11,-553.57 -37.07,77.95 -65.1,105.43 -68.3,226.19 -10.49,397.2 300.11,364.66 85.47,656.73 -189.06,257.21 -3.11,343.17 92.97,632 3.63,10.91 5.77,18.47 7.11,23.67 18.87,27.3 36.64,15.51 55.24,55.63 23.79,51.4 35.83,121.94 106.28,112.99 25.37,-3.24 54.39,-13.7 76.13,-24.97 21.77,-11.28 36.28,-23.37 39.49,-40.3 3.24,-16.9 -4.84,-38.67 -9.25,-57.2 -4.44,-18.53 -5.26,-33.83 -17.75,-43.51 -12.49,-9.68 -36.64,-13.7 -53.58,-19.74 -40.33,-14.39 -60.59,-65.04 -81.79,-100.11 -38.43,-32.17 -112.44,-212.07 -117.98,-281 -21.01,-262.5 274.17,-108.75 401.55,-577.67 12.28,-45.23 24.97,-125.87 38.85,-157.16 -3.81,154.65 -23.95,201.67 -36.37,267.55 109.51,48.44 300.81,61.2 434.54,58.08 26.79,-0.6 95.91,-9.49 112.23,-4.72 37.7,11.04 8.04,27.18 93.85,22.71 85.44,-4.41 124.39,-31.75 196.59,-45.5 50.61,33.62 70.36,60.47 136.69,93.7 37.52,18.78 111.57,49.31 144.76,73.47 96.42,70.21 -48.59,214.7 -50.37,310.39 21.44,-22.13 9.68,-17.69 41.66,-30.39 -10.01,30.02 -22.77,43.66 -36.46,62.47 -154.23,-31.29 -112.29,134.15 -121.57,199.49 0.42,0.91 0.85,1.81 1.24,2.66 7.65,15.69 14.91,18.38 25.79,18.38 10.88,0 25.4,-2.69 38.88,-9.34 46.08,-22.71 149.18,-181.53 162.06,-212.25 32.53,-77.61 43.36,-164.39 65.22,-238.49 28.72,-97.3 47.59,-153.08 -20.41,-230.33 -50.86,-57.75 -111.48,-95 -147.67,-157.49 27.33,-84.33 65.85,-129.56 74.56,-240.94 6.5,-83.45 -45.38,-235.56 -40.58,-244l42.18 80.39c24.73,-43.66 33.89,-113.11 35.41,-166.08 -131.61,-92.94 -370.62,-333.43 -394.96,-349.15 -90.43,22.83 -47.26,64.79 -149.48,12.67 -42.09,-21.47 -91.64,-51.28 -142.38,-60.08 373.31,202.79 327.47,269.82 262.62,647zm-1033.19 -873.18c4.81,22.4 12.25,61.86 24.55,94.18 12.31,32.29 29.51,57.48 50.7,74.29 21.16,16.84 46.35,25.31 83.02,29.06 36.67,3.78 84.87,2.78 115.92,1.39 31.05,-1.39 44.96,-3.2 52.34,-4.41 7.41,-1.21 8.25,-1.81 3.93,-20.98 -4.29,-19.2 -13.73,-56.96 -22.8,-86.38 -9.07,-29.42 -17.81,-50.49 -23.34,-67.57 -5.53,-17.08 -7.86,-30.17 -6.29,-33.56 11.13,-23.98 69.66,168.8 71.78,174.36 6.5,17.2 8.68,19.65 12.79,19.23 4.08,-0.39 10.13,-3.63 14,-6.89 3.87,-3.27 5.59,-6.56 -4.2,-30.51 -13.85,-33.8 -50.92,-127.14 -57.72,-159.43 -1.81,-8.65 0.12,-9.43 10.58,-13.76 10.46,-4.35 29.45,-12.25 41.06,-16.84 11.58,-4.63 15.75,-5.93 21.65,5.81 5.87,11.73 13.42,36.49 21.35,56.39 7.89,19.86 16.12,34.89 22.19,43.11 6.05,8.22 9.92,9.68 10.28,2.78 0.36,-6.89 -2.78,-22.16 -8.1,-42.12 -5.32,-19.99 -12.85,-44.69 -17.14,-59.5 -4.32,-14.82 -5.44,-19.74 -1.27,-25.88 4.17,-6.14 13.61,-13.48 23.86,-22.37 10.25,-8.92 21.32,-19.41 25.25,-26.46 3.96,-7.07 0.79,-10.7 -1.39,-13 -2.18,-2.3 -3.39,-3.27 -9.98,0.7 -6.56,3.96 -18.47,12.82 -38.58,24.94 -20.08,12.09 -48.35,27.42 -81.48,40.79 -33.14,13.36 -71.17,24.73 -115.23,31.38 -44.05,6.68 -94.18,8.62 -132.97,7.53 -38.82,-1.09 -66.34,-5.23 -79,-4.6 -12.67,0.6 -10.52,5.96 -5.74,28.33zm-3.78 -269.7c-6.05,5.56 -9.86,15.75 -12.58,30.81 -2.69,15.03 -4.29,34.92 -3.84,62.37 0.42,27.45 2.87,62.47 4.87,83.18 2,20.68 3.51,27.06 13.42,32.41 9.92,5.32 28.24,9.64 63.89,11.61 35.65,2 88.68,1.69 123.99,0.09 35.34,-1.6 53.03,-4.44 63.61,-6.14 10.58,-1.66 14.09,-2.15 14.78,-24.97 0.73,-22.86 -1.33,-68.06 -3.02,-103.95 -1.66,-35.92 -2.93,-62.5 -5.32,-76.34 -2.39,-13.85 -5.9,-14.97 -26.73,-15.12 -20.86,-0.15 -59.08,0.63 -97.02,0.54 -37.98,-0.06 -75.71,-1.03 -98.72,-1.03 -23.01,0 -31.29,0.97 -37.34,6.53zm464.98 -51.16c-0.94,-3.02 -1.9,-4.93 -5.47,-5.62 -8.56,-1.72 -24.61,0.15 -34.01,0.79 -119.79,17.6 -240.85,30.54 -361.94,28.12 -20.83,-0.42 -41,-2.36 -58.23,-1.54 -10.25,-0.51 -20.35,-0.51 -26.97,-0.09 -10.49,0.67 -12.25,2.42 -13.73,6.11 -1.48,3.72 -2.72,9.37 -4.14,18.9 -16.93,114.8 14.45,319.13 69,421.2 42.15,78.55 77.37,72.81 186.88,73.77 93.97,0.82 161.33,7.41 206.08,-62.44 56.87,-10.76 101.14,-122 87.8,-216.09 -9.07,-63.86 -27.54,-206.9 -45.26,-263.1zm290.22 247.47c-1.69,17.17 -4.78,40.54 -4.93,60.53 -0.12,19.99 2.69,36.58 3.66,55.3 1,18.72 0.15,39.55 -8.59,54.18 -8.71,14.66 -25.34,23.1 -37.16,27.33 -11.82,4.2 -18.84,4.2 -21.8,1.39 -2.96,-2.81 -1.84,-8.44 2.81,-14.06 4.66,-5.65 12.82,-11.28 17.29,-21.83 4.5,-10.55 5.35,-26.03 5.65,-41.94 0.27,-15.9 0,-32.23 0.42,-49.83 0.42,-17.6 1.54,-36.46 6.17,-55.18 4.66,-18.72 12.82,-37.28 19.86,-46.44 7.04,-9.13 12.94,-8.86 15.75,-3.24 2.81,5.62 2.54,16.6 0.85,33.77zm738.37 687.39l19.14 -39.52c23.13,5.68 56.21,23.64 89.62,39.7 27.3,13.15 57.54,23.55 78.1,32.9 -55.21,31.2 -147.79,6.92 -186.85,-33.08zm-1128.61 -103.07c39.4,50.01 119.1,166.56 144.95,222.47 -113.99,-74.98 -167.14,-339.08 -369.17,-319.43 244.15,112.78 181.05,528.35 587.74,385.13 -234.83,-148.88 -210.34,-366.72 -447.05,-454.91 -66.55,-24.79 -181.86,-36.28 -241.58,22.62 147.15,8.01 224.22,15.96 325.12,144.13zm1515.28 70.99c102.07,42.63 216.57,-29.39 134.85,-228.3 -25.97,-63.16 -18.75,-77.52 -82.18,-61.32 13.24,-20.65 22.89,-23.86 32.77,-46.83l-52.34 -114.44 -36.28 5.47c31.53,-48.68 61.13,-115.13 -8.38,-157.77l62.25 21.74 11.04 70.3c22.04,-45.11 22.92,-94.54 6.53,-144.31 24.01,11.67 28,19.86 43.84,36.43 -6.71,-67.7 -43.3,-80.15 -84.17,-117.58 -33.89,13.48 -15.15,8.22 -27.51,46.5 -34.23,105.88 -34.59,92.91 -95.81,126.71 62.5,127.95 162.15,295.21 149.33,431.45 -9.04,96.48 -67.24,68.48 -53.94,131.95zm-160.31 -696.01l52.22 102.04c75.28,-29.75 71.48,-124.36 116.37,-170.74 -0.82,-4.02 -4.38,-25.67 -5.59,-29 -7.5,-20.35 -3.33,-11.07 -12.43,-23.61 -37.16,55.84 -97.17,83.81 -150.57,121.3zm22.77 563.73l59.59 56.78c92.67,9.16 85.81,-146.88 59.56,-218.14 -18.2,36.37 -19.17,61.74 -48.44,94.12 -46.83,51.85 -51.16,11.31 -70.72,67.24zm-446.75 -453.07l-44.54 22.71 -25.09 -80.73c18.62,11.31 55.51,29.51 69.63,58.02zm-1329.13 -357.38c1.24,-28.66 8.47,-61.86 14.82,-89.1 17.6,-75.16 51.76,-135.82 98.2,-147.82 18.81,-4.87 93.03,-10.58 169.86,-10.25 161.06,0.76 228.27,18.9 219.81,187.61 -0.21,13.24 -0.6,27.88 -1,37.91 -0.63,15.03 -1.3,19.65 -2.12,22.86 -0.82,3.2 -1.78,4.96 -12.03,8.16 -17.32,5.38 -36.34,8.92 -54.39,12 -19.77,3.39 -42.75,6.5 -60.44,8.38 -77.25,12.34 -247.56,26.27 -339.96,12.76 -8.22,-0.85 -18.11,-2.18 -23.95,-3.69 -7.35,-1.9 -8.25,-4.11 -8.83,-7.92 -0.54,-3.81 -0.73,-9.25 -0.6,-15.45 0.09,-5.32 0.39,-11.22 0.63,-15.45z"/> </g> </svg>